<?xml version="1.0" encoding="UTF-8"?>
<svg version="1.1" xmlns="http://www.w3.org/2000/svg" width="2000" height="1730">
<path d="M0 0 C0.79889648 0.45858398 1.59779297 0.91716797 2.42089844 1.38964844 C6.33857642 3.64202868 10.24803565 5.90812613 14.15234375 8.18359375 C19.25108795 11.15257492 24.37424072 14.07797875 29.5 17 C44.13085257 25.34976861 58.71043407 33.77875058 73.17749023 42.40991211 C78.56630821 45.61187549 84.0131932 48.67530269 89.52636719 51.65795898 C92.5006689 53.27163215 95.44131936 54.93871113 98.375 56.625 C99.56634881 57.30869386 100.75775922 57.99228037 101.94921875 58.67578125 C102.59036621 59.04396973 103.23151367 59.4121582 103.89208984 59.79150391 C106.2243613 61.12862965 108.55922386 62.46115257 110.89453125 63.79296875 C119.44459606 68.66981446 127.98594875 73.56050948 136.5 78.5 C143.11190717 82.33561007 149.73709916 86.14704497 156.375 89.9375 C157.68162598 90.68362549 157.68162598 90.68362549 159.01464844 91.44482422 C163.47452687 93.99039066 167.93600456 96.53313352 172.3984375 99.07421875 C180.42061925 103.64581141 188.43022022 108.2324503 196.375 112.9375 C204.89682868 117.9812809 213.52170397 122.83776038 222.1484375 127.69921875 C234.68387638 134.76415722 247.17812319 141.89576929 259.5637207 149.22045898 C265.90157937 152.9609439 272.29288905 156.60484679 278.68896484 160.24462891 C286.68478026 164.80222914 294.6328082 169.43992765 302.56665039 174.10449219 C308.10116255 177.34841958 313.67947129 180.48537898 319.32080078 183.53955078 C323.62241591 185.88438965 327.87424601 188.31449872 332.125 190.75 C333.02806885 191.2665918 333.9311377 191.78318359 334.86157227 192.31542969 C341.28589911 195.99810002 347.67780923 199.73302173 354.05297852 203.5 C359.31583847 206.60729709 364.61638066 209.64373727 369.9296875 212.6640625 C376.38871088 216.35445417 382.79727529 220.13329431 389.21118164 223.90136719 C394.89571656 227.23013621 400.62301967 230.45289704 406.41625977 233.58837891 C410.27685122 235.69760501 414.07639984 237.90664423 417.875 240.125 C424.7331913 244.11321727 431.60806199 248.07039181 438.5 252 C453.13077681 260.34990809 467.71042976 268.77874801 482.17749023 277.40991211 C487.49886306 280.57180049 492.87685801 283.59618444 498.32080078 286.54174805 C502.47617364 288.80346138 506.58271749 291.14804868 510.6875 293.5 C511.58049805 294.01062988 512.47349609 294.52125977 513.39355469 295.04736328 C521.20863468 299.52568275 528.97916267 304.078811 536.75 308.63330078 C545.23347306 313.5888173 553.80166702 318.38405647 562.390625 323.15380859 C567.7641217 326.14866246 573.05223417 329.20995809 578.25 332.5 C592.55946087 341.44580753 607.67653932 347.51760505 624.625 344 C644.65131926 338.45541856 663.74115296 325.11895328 681.33374023 314.39599609 C689.79552907 309.26187702 698.47094158 304.49140194 707.09521484 299.63769531 C720.31465198 292.18467932 733.44983969 284.58938574 746.55053711 276.92993164 C752.75627464 273.3029926 758.98128791 269.71559212 765.23046875 266.1640625 C769.25466959 263.86483899 773.24900584 261.51500151 777.24731445 259.17114258 C787.76574107 253.00753727 798.34679542 246.97366545 808.99560547 241.03833008 C817.52093716 236.28225383 825.9761875 231.41529006 834.41210938 226.50292969 C839.49585273 223.55052175 844.59323199 220.62169665 849.6875 217.6875 C857.17416872 213.37427836 864.64830125 209.04115107 872.10253906 204.67211914 C882.37340603 198.65310645 892.71227063 192.77370724 903.11279297 186.98168945 C910.55832754 182.82835404 917.9256519 178.56043321 925.2578125 174.2109375 C928.67193259 172.18678996 932.11175656 170.2112139 935.5625 168.25 C940.8197158 165.26130883 946.04457171 162.22158482 951.26147461 159.16308594 C961.64850248 153.07565758 972.09819759 147.11996958 982.61767578 141.26464844 C992.05153423 136.00081817 1001.37978327 130.56467985 1010.69921875 125.1015625 C1015.8350733 122.09104409 1020.99995507 119.1365569 1026.17578125 116.1953125 C1032.55330339 112.55152297 1038.87991075 108.81812861 1045.21289062 105.09765625 C1050.85051936 101.79630856 1056.53217481 98.60600924 1062.27758789 95.49658203 C1066.94997348 92.92804794 1071.53193646 90.20700048 1076.125 87.5 C1085.83077485 81.80496458 1095.60845984 76.2523834 1105.44970703 70.79492188 C1110.81170691 67.81514516 1116.10748494 64.7569179 1121.35546875 61.58105469 C1126.03667228 58.78235878 1130.78119433 56.09391068 1135.52059937 53.39532471 C1137.35915037 52.34843685 1139.19687744 51.30011494 1141.03442383 50.25146484 C1145.71149371 47.58279385 1150.39011955 44.91685842 1155.06933594 42.25195312 C1164.60447108 36.82117197 1174.11969783 31.3646573 1183.56494141 25.77880859 C1189.90521812 22.036933 1196.29861573 18.39102737 1202.69775391 14.75097656 C1208.57820584 11.4001761 1214.42818639 8.00086196 1220.26489258 4.57446289 C1236.03968829 -4.67940699 1236.03968829 -4.67940699 1243.375 -8.6875 C1244.96441406 -9.55955078 1244.96441406 -9.55955078 1246.5859375 -10.44921875 C1254.8375283 -14.19736697 1262.33424087 -15.53253092 1271.375 -15.4375 C1272.38651123 -15.42992676 1273.39802246 -15.42235352 1274.44018555 -15.41455078 C1281.88129228 -15.25040432 1288.28040192 -14.38617109 1295 -11 C1295.85207031 -10.57589844 1296.70414063 -10.15179687 1297.58203125 -9.71484375 C1312.42459399 -1.52977459 1322.18634201 10.82849608 1327 27 C1327.78161451 31.6421256 1328.12531052 36.09540212 1328.12649983 40.79953259 C1328.12802638 41.45072255 1328.12955293 42.10191251 1328.13112573 42.77283551 C1328.13501599 44.95028604 1328.13181356 47.12766678 1328.12863445 49.30511761 C1328.12998143 50.89057677 1328.1317655 52.47603561 1328.13394669 54.06149384 C1328.13868051 58.43103317 1328.13717378 62.80055168 1328.13466892 67.17009203 C1328.13303758 71.919088 1328.13717523 76.66807948 1328.14057809 81.41707402 C1328.1457363 89.74469955 1328.14714856 98.07231925 1328.14612198 106.39994621 C1328.14459912 118.78351154 1328.14875422 131.16707042 1328.1539966 143.5506345 C1328.16367667 166.95323816 1328.16648109 190.35583962 1328.16705366 213.75844505 C1328.16751289 231.82883 1328.16956957 249.8992141 1328.17275429 267.96959877 C1328.17365181 273.16777414 1328.17454162 278.36594951 1328.17542917 283.56412488 C1328.17565021 284.85634247 1328.17587126 286.14856006 1328.17609901 287.47993576 C1328.18225479 323.83680637 1328.1862053 360.19367648 1328.18575573 396.5505476 C1328.18573995 397.9356453 1328.18572422 399.32074301 1328.18570852 400.70584071 C1328.18563514 406.95945174 1328.18554697 413.21306277 1328.18545464 419.4666738 C1328.18541351 422.25532092 1328.18537337 425.04396803 1328.18533332 427.83261514 C1328.18531293 429.22838353 1328.18529191 430.62415192 1328.18527026 432.01992031 C1328.18459004 476.15399001 1328.19190679 520.28805169 1328.20581055 564.42211914 C1328.20931157 575.54132427 1328.21278103 586.66052941 1328.21607494 597.77973461 C1328.21637925 598.80671754 1328.21637925 598.80671754 1328.21668971 599.85444759 C1328.22290491 620.95690894 1328.22667032 642.05936963 1328.22793293 663.16183186 C1328.22797288 663.82439009 1328.22801283 664.48694833 1328.22805399 665.16958409 C1328.22894556 680.36708306 1328.22913701 695.56458198 1328.22884732 710.76208097 C1328.22877269 715.96182811 1328.22872399 721.16157526 1328.22869301 726.3613224 C1328.22868135 727.64166832 1328.2286697 728.92201424 1328.22865769 730.24115851 C1328.2286269 750.86117581 1328.23501762 771.48118635 1328.24362527 792.10120164 C1328.25209489 812.81879491 1328.25309713 833.53637827 1328.24651595 854.25397231 C1328.24281567 866.56685009 1328.24466691 878.87969777 1328.25445829 891.19257237 C1328.26044527 899.41505942 1328.25917712 907.6375246 1328.25198779 915.86001063 C1328.24809544 920.54637141 1328.24736182 925.23267384 1328.25544515 929.91903057 C1328.26273953 934.1853196 1328.2607692 938.45150183 1328.25152128 942.71778616 C1328.24980493 944.2486831 1328.25141206 945.77958847 1328.25682249 947.31047682 C1328.3108122 963.68849493 1326.67384005 979.87092491 1314.84765625 992.359375 C1305.31301162 1000.82565564 1294.55261242 1007.10268432 1283.3984375 1013.1328125 C1271.22326311 1019.82216119 1259.23466496 1026.85211399 1247.25 1033.875 C1237.74980778 1039.44137965 1228.1769746 1044.86636762 1218.54785156 1050.20654297 C1213.09065259 1053.2390236 1207.6958613 1056.3474365 1202.35449219 1059.57958984 C1198.69931174 1061.78467485 1195.00790758 1063.92572456 1191.3125 1066.0625 C1190.51215332 1066.5258374 1189.71180664 1066.9891748 1188.88720703 1067.46655273 C1182.40728856 1071.20831129 1175.89458497 1074.89040708 1169.375 1078.5625 C1161.98377622 1082.72581444 1154.63391108 1086.9466912 1147.33569336 1091.27075195 C1141.90058809 1094.48565766 1136.42551081 1097.62638507 1130.9375 1100.75 C1123.303253 1105.09536731 1115.70496997 1109.4981712 1108.125 1113.9375 C1099.18814709 1119.16953201 1090.19841514 1124.29870973 1081.17260742 1129.37548828 C1074.68582152 1133.03009462 1068.24924553 1136.76021996 1061.84228516 1140.55273438 C1056.59790335 1143.65621747 1051.31332318 1146.68360737 1046.015625 1149.6953125 C1041.90376233 1152.04464458 1037.82122856 1154.44340215 1033.73583984 1156.83837891 C1024.1511687 1162.45592043 1014.5211541 1167.97432377 1004.8125 1173.375 C996.41281789 1178.05563094 988.05261609 1182.73578979 980 1188 C979.25234375 1188.47050781 978.5046875 1188.94101563 977.734375 1189.42578125 C967.78310077 1196.16757963 962.270795 1206.6800497 959 1218 C958.33026113 1222.67229677 958.23496647 1227.22287766 958.3125 1231.9375 C958.33074829 1233.7779187 958.33074829 1233.7779187 958.34936523 1235.65551758 C958.61210069 1244.95511617 959.8180351 1252.09008442 965 1260 C965.56460937 1260.86238281 966.12921875 1261.72476562 966.7109375 1262.61328125 C971.94637929 1269.85050961 978.53998445 1275.04931204 986.25 1279.4375 C986.95962891 1279.84871094 987.66925781 1280.25992187 988.40039062 1280.68359375 C996.56170664 1285.38232632 1004.81910077 1289.91298002 1013.06103516 1294.46826172 C1019.96017106 1298.28761564 1026.79795335 1302.18371917 1033.5703125 1306.22265625 C1039.81580275 1309.93091608 1046.15500666 1313.4653634 1052.5 1317 C1059.58616147 1320.94848688 1066.65060928 1324.91939913 1073.625 1329.0625 C1086.97441144 1336.98978967 1100.54254395 1344.54331337 1114.125 1352.0625 C1120.66970697 1355.6875224 1127.18800201 1359.35699886 1133.6875 1363.0625 C1134.57445557 1363.56797363 1135.46141113 1364.07344727 1136.37524414 1364.59423828 C1141.02580716 1367.25700153 1145.6311434 1369.97577185 1150.19238281 1372.78857422 C1165.00370111 1381.88806037 1179.99564782 1387.19403105 1197.4921875 1383.984375 C1204.54069795 1382.00639657 1210.66517208 1378.58230726 1217 1375 C1218.0621875 1374.40219727 1219.124375 1373.80439453 1220.21875 1373.18847656 C1227.34175041 1369.172161 1234.43269559 1365.10192912 1241.51293945 1361.01074219 C1245.10231065 1358.93832158 1248.70086762 1356.88216316 1252.30078125 1354.828125 C1257.56677866 1351.82269578 1262.81998944 1348.79619466 1268.0625 1345.75 C1275.74527814 1341.29348654 1283.45137889 1336.87904979 1291.16674805 1332.47924805 C1296.91691887 1329.19759292 1302.65063093 1325.88892059 1308.375 1322.5625 C1315.42747076 1318.46528659 1322.51803461 1314.43936707 1329.625 1310.4375 C1337.18089317 1306.18187482 1344.69403007 1301.86526867 1352.15649414 1297.44799805 C1357.40127338 1294.34425382 1362.68626391 1291.31662737 1367.984375 1288.3046875 C1372.09535307 1285.95586084 1376.17703119 1283.557661 1380.26147461 1281.16308594 C1390.64850248 1275.07565758 1401.09819759 1269.11996958 1411.61767578 1263.26464844 C1421.98843008 1257.47805638 1432.23135669 1251.47967749 1442.4765625 1245.47460938 C1447.3271835 1242.64007466 1452.20834302 1239.85980478 1457.09277344 1237.08398438 C1472.7880947 1228.16693587 1472.7880947 1228.16693587 1488.375 1219.0625 C1495.85768305 1214.631823 1503.42458075 1210.35844462 1511.00390625 1206.09570312 C1518.00115479 1202.15171592 1524.94749114 1198.12754743 1531.875 1194.0625 C1541.33247667 1188.51436234 1550.86376229 1183.11098388 1560.45263672 1177.79321289 C1566.71152234 1174.31518968 1572.88775083 1170.72970865 1579 1167 C1579.65323242 1166.60377441 1580.30646484 1166.20754883 1580.97949219 1165.79931641 C1595.65625264 1156.83281951 1605.15576025 1147.57086538 1609.35484409 1130.28871763 C1610.35859699 1125.17203215 1610.47447496 1120.16851591 1610.50183105 1114.96699524 C1610.52765747 1113.25983583 1610.52765747 1113.25983583 1610.55400562 1111.51818836 C1610.60673934 1107.77037428 1610.6387086 1104.02270854 1610.66992188 1100.2746582 C1610.69400286 1098.27657285 1610.71809965 1096.27848736 1610.74357232 1094.28041926 C1610.85925121 1085.18715723 1610.93440496 1076.0937421 1611 1067 C1611.00992784 1065.66536183 1611.01986247 1064.33072371 1611.02980423 1062.99608564 C1611.16036065 1045.00000749 1611.22289038 1027.00389609 1611.2653223 1009.00744436 C1611.28282233 1001.69570796 1611.30610328 994.3839924 1611.32973462 987.07227365 C1611.37183579 974.02857745 1611.41111743 960.98487477 1611.44775391 947.94116211 C1611.44991671 947.17156087 1611.45207951 946.40195963 1611.45430785 945.60903714 C1611.47631967 937.76319472 1611.49801852 929.91735145 1611.51953927 922.07150767 C1611.53040485 918.11171791 1611.54131178 914.15192825 1611.55224609 910.19213867 C1611.55440496 909.40989432 1611.55656383 908.62764997 1611.55878812 907.82170125 C1611.59497193 894.75112468 1611.63488434 881.68056219 1611.67754889 868.6100052 C1611.70348018 860.613932 1611.72619055 852.61786274 1611.74453247 844.62176845 C1611.75876788 838.52363181 1611.77789832 832.42551941 1611.79878426 826.32740211 C1611.80649406 823.84225547 1611.81258356 821.35710314 1611.81687737 818.87194824 C1611.89839356 773.45599191 1611.89839356 773.45599191 1626.8515625 756.95703125 C1633.27051136 750.74874287 1641.07848979 746.6197001 1648.79443359 742.25585938 C1651.49369603 740.71888727 1654.16444456 739.13707912 1656.83447266 737.55004883 C1665.8169308 732.21401192 1674.89843542 727.05199871 1683.97741699 721.8828125 C1691.4818724 717.60850755 1698.94781053 713.28414018 1706.33007812 708.80175781 C1710.41485045 706.32838746 1714.56706789 704.02391193 1718.7734375 701.765625 C1724.0474523 698.87960238 1729.25087864 695.87035054 1734.46630859 692.88012695 C1741.21110583 689.01556281 1747.97673354 685.18940068 1754.75 681.375 C1762.09322109 677.23536132 1769.39401907 673.03516528 1776.6472168 668.73999023 C1784.87407771 663.87540306 1793.17993441 659.14988793 1801.49023438 654.4296875 C1803.86775828 653.07533147 1806.23927143 651.71103824 1808.609375 650.34375 C1810.01030786 649.54147665 1811.41134311 648.73938204 1812.8125 647.9375 C1813.73494507 647.40080688 1813.73494507 647.40080688 1814.67602539 646.85327148 C1827.72594972 639.42760515 1843.78987829 637.57216746 1858.4453125 641.125 C1875.24418068 646.87874078 1888.16106261 658.32308997 1896.09518003 674.19020557 C1900.50930507 685.17029277 1899.55421626 696.88825117 1899.50793457 708.52026367 C1899.51254605 711.03819991 1899.51890062 713.55613346 1899.52684355 716.07406139 C1899.54004657 721.53876824 1899.54087938 727.00325867 1899.53065491 732.46796799 C1899.51549207 740.5942808 1899.52327693 748.72046071 1899.53548814 756.8467727 C1899.55652917 771.36236331 1899.55473429 785.87788341 1899.54317249 800.39348069 C1899.53310433 813.09642428 1899.53048622 825.79934205 1899.53526306 838.50228882 C1899.53572137 839.76694656 1899.53572137 839.76694656 1899.53618894 841.05715295 C1899.53743433 844.47972016 1899.53870793 847.90228735 1899.540028 851.32485453 C1899.55225989 883.42137474 1899.54117666 915.51785008 1899.51964041 947.61436336 C1899.50065844 976.12086263 1899.50235697 1004.62729042 1899.52148438 1033.13378906 C1899.54290984 1065.17216367 1899.55139236 1097.21049865 1899.53903532 1129.24887943 C1899.53775248 1132.66515667 1899.53650112 1136.08143392 1899.53526306 1139.49771118 C1899.53494675 1140.33886589 1899.53463044 1141.18002061 1899.53430455 1142.04666486 C1899.52975752 1154.74062396 1899.53507042 1167.43455439 1899.54518127 1180.12850952 C1899.55662227 1194.56427503 1899.55375055 1208.99995911 1899.5320583 1223.43571448 C1899.52032251 1231.51172318 1899.51953279 1239.58755547 1899.534643 1247.66355955 C1899.54468391 1253.69622121 1899.53377499 1259.72865469 1899.5147447 1265.76130259 C1899.51027853 1268.19990024 1899.51254517 1270.63852153 1899.52224785 1273.07710397 C1899.60825715 1296.49093425 1899.60825715 1296.49093425 1895 1306 C1894.49339844 1307.06476563 1893.98679687 1308.12953125 1893.46484375 1309.2265625 C1884.7506831 1322.91069201 1872.91188075 1329.71427834 1859.04931641 1337.3125 C1853.53316269 1340.36515448 1848.08234805 1343.53130088 1842.625 1346.6875 C1841.51688965 1347.3263916 1840.4087793 1347.9652832 1839.26708984 1348.62353516 C1832.72742437 1352.39976874 1826.22943608 1356.23563381 1819.77050781 1360.14794922 C1815.64926766 1362.63564082 1811.46182135 1364.95949589 1807.22265625 1367.23828125 C1793.80306723 1374.57432325 1780.61781026 1382.35331964 1767.43481445 1390.10351562 C1761.89989284 1393.34791222 1756.32104619 1396.48509882 1750.67919922 1399.53955078 C1746.37758278 1401.88439036 1742.12578222 1404.3145461 1737.875 1406.75 C1736.96540527 1407.27021729 1736.05581055 1407.79043457 1735.11865234 1408.32641602 C1729.59716782 1411.49100439 1724.10100044 1414.69497388 1718.625 1417.9375 C1710.10313377 1422.98122011 1701.47829793 1427.83775931 1692.8515625 1432.69921875 C1680.15380051 1439.85564208 1667.50077941 1447.08477809 1654.95068359 1454.49731445 C1647.54428075 1458.86886854 1640.07016601 1463.11994829 1632.59228516 1467.36767578 C1623.01511601 1472.81084092 1613.46342235 1478.27748712 1604.04150391 1483.98583984 C1599.67771186 1486.62005807 1595.24597414 1489.08972018 1590.7578125 1491.50390625 C1583.29757263 1495.55103355 1575.97012333 1499.84149821 1568.6484375 1504.1328125 C1557.29091297 1510.78815303 1545.88448657 1517.33305164 1534.38232422 1523.73535156 C1524.01156992 1529.52194362 1513.76864331 1535.52032251 1503.5234375 1541.52539062 C1498.6728165 1544.35992534 1493.79165698 1547.14019522 1488.90722656 1549.91601562 C1473.21196548 1558.83316797 1473.21196548 1558.83316797 1457.625 1567.9375 C1449.10323687 1572.98138806 1440.47829299 1577.83776209 1431.8515625 1582.69921875 C1420.05347574 1589.34858762 1408.27895438 1596.03812442 1396.625 1602.9375 C1388.10308711 1607.98114349 1379.47830001 1612.83775813 1370.8515625 1617.69921875 C1358.15155015 1624.85691037 1345.4951307 1632.08564624 1332.9440918 1639.50170898 C1327.68222904 1642.6084703 1322.38263556 1645.64429649 1317.0703125 1648.6640625 C1310.61128912 1652.35445417 1304.20272471 1656.13329431 1297.78881836 1659.90136719 C1292.13017434 1663.21497493 1286.43061862 1666.42699797 1280.66381836 1669.54833984 C1276.36711567 1671.88984788 1272.12065319 1674.31748474 1267.875 1676.75 C1266.96540527 1677.27021729 1266.05581055 1677.79043457 1265.11865234 1678.32641602 C1259.59716705 1681.49100483 1254.10102387 1684.69501236 1248.625 1687.9375 C1241.83642861 1691.95475629 1234.99190275 1695.86825106 1228.125 1699.75 C1227.1860791 1700.28101318 1226.2471582 1700.81202637 1225.27978516 1701.35913086 C1223.4392825 1702.39674382 1221.59635584 1703.4300694 1219.75097656 1704.45898438 C1217.89592284 1705.49813055 1216.04899322 1706.55189683 1214.20996094 1707.61914062 C1204.77309273 1712.99553692 1196.49795006 1715.52675556 1185.625 1715.4375 C1184.34109375 1715.4674707 1184.34109375 1715.4674707 1183.03125 1715.49804688 C1171.18715325 1715.489208 1161.41158135 1710.52164024 1151.375 1704.6875 C1150.30523926 1704.07720947 1149.23547852 1703.46691895 1148.13330078 1702.83813477 C1144.7489012 1700.90338223 1141.37380757 1698.95315473 1138 1697 C1135.80230379 1695.73399222 1133.6043892 1694.46836346 1131.40625 1693.203125 C1127.05317259 1690.69494647 1122.70363144 1688.18074914 1118.35546875 1685.6640625 C1112.32008416 1682.17670655 1106.25941779 1678.73577076 1100.1875 1675.3125 C1085.11681407 1666.8150753 1070.10431254 1658.21993395 1055.125 1649.5625 C1045.88676425 1644.22402245 1036.62001261 1638.93953488 1027.32592773 1633.69897461 C1012.09377048 1625.10974865 996.93759183 1616.39069299 981.7980957 1607.6394043 C974.68007759 1603.53053581 967.53776063 1599.46778611 960.375 1595.4375 C951.57708127 1590.48715592 942.85136244 1585.42269777 934.14477539 1580.3137207 C925.69906481 1575.37302469 917.16441481 1570.60114493 908.61328125 1565.84594727 C902.31499093 1562.3317056 896.11375251 1558.73448801 890.0390625 1554.84375 C886.39856003 1552.63511611 882.67015719 1550.62000387 878.92626953 1548.59277344 C874.29617749 1546.07260654 869.71119687 1543.47395165 865.125 1540.875 C863.64386719 1540.03630371 863.64386719 1540.03630371 862.1328125 1539.18066406 C859.0877389 1537.45518709 856.04373127 1535.72784355 853 1534 C852.05608398 1533.4647168 851.11216797 1532.92943359 850.13964844 1532.37792969 C840.22303689 1526.75071545 830.34506499 1521.08151456 820.6171875 1515.1328125 C816.77200857 1512.82392135 812.82492083 1510.70757671 808.88232422 1508.57080078 C804.26795611 1506.05607569 799.69696506 1503.46579349 795.125 1500.875 C794.12960205 1500.31151855 793.1342041 1499.74803711 792.10864258 1499.16748047 C779.974382 1492.2932262 767.8557259 1485.3918344 755.78515625 1478.40625 C743.82796463 1471.48702898 731.83459693 1464.64578511 719.76708984 1457.9206543 C713.25193683 1454.2824497 706.79495454 1450.5630817 700.37963867 1446.75219727 C694.54738599 1443.29721768 688.65523403 1439.95344909 682.75 1436.625 C681.77780518 1436.07666504 680.80561035 1435.52833008 679.80395508 1434.96337891 C677.83862203 1433.85516345 675.87320864 1432.74709048 673.90771484 1431.63916016 C672.94816895 1431.0982373 671.98862305 1430.55731445 671 1430 C670.07010254 1429.47583496 669.14020508 1428.95166992 668.18212891 1428.41162109 C621.10536497 1401.83347288 621.10536497 1401.83347288 615 1381 C613.10826074 1373.4254351 612.66974716 1366.1362035 612.59799194 1358.35064697 C612.57934951 1357.11058073 612.56070709 1355.87051448 612.54149973 1354.59287047 C612.49254448 1351.17642574 612.45219308 1347.76009195 612.41605163 1344.34350157 C612.38351704 1341.40686598 612.34400055 1338.47033886 612.30468051 1335.53378752 C611.93377844 1307.68873811 611.74437728 1279.84102198 611.5922451 1251.99402237 C611.57211136 1248.37329144 611.55160889 1244.75256283 611.53076172 1241.13183594 C611.52559727 1240.23201641 611.52043282 1239.33219688 611.51511188 1238.40511009 C611.42883837 1223.82544397 611.25194174 1209.24826257 611.04006188 1194.66994002 C610.82400032 1179.67888758 610.69935985 1164.68912566 610.66053545 1149.69655395 C610.63627571 1141.28702336 610.5712074 1132.88209175 610.40134811 1124.47412872 C610.25672533 1117.31426894 610.19411151 1110.15956527 610.23694055 1102.99827078 C610.25622044 1099.34664852 610.23757404 1095.70618117 610.1121521 1092.05641937 C609.42087394 1070.86005757 609.42087394 1070.86005757 615.31531191 1064.50295544 C621.03237842 1060.06196858 627.27259267 1057.09088019 633.93258214 1054.33375883 C638.74740797 1052.24020107 643.18453567 1049.55923523 647.6875 1046.875 C649.40037382 1045.89368889 651.11498517 1044.91539854 652.83203125 1043.94140625 C653.67846191 1043.45945801 654.52489258 1042.97750977 655.39697266 1042.48095703 C657.16727831 1041.47376569 658.93779402 1040.46694347 660.70849609 1039.46044922 C670.18617907 1034.07237041 679.63950435 1028.66344229 688.96240234 1023.01098633 C693.28233493 1020.40145052 697.67738054 1017.97640328 702.125 1015.59375 C705.63662403 1013.64708885 709.06648217 1011.58043905 712.5 1009.5 C717.52955265 1006.45566561 722.59801366 1003.54589472 727.77734375 1000.76171875 C739.9059381 994.1314205 751.82517738 987.1126201 763.75 980.125 C772.97621815 974.72050828 782.27683687 969.46396933 791.61938477 964.26367188 C801.9895977 958.47745835 812.23192418 952.47934486 822.4765625 946.47460938 C827.34021162 943.63246148 832.23470601 940.84516527 837.13232422 938.06201172 C850.39443005 930.52081428 863.62163231 922.91957064 876.83251953 915.2890625 C882.25535039 912.15755725 887.68190309 909.0336343 893.125 905.9375 C897.19682422 903.61861364 901.25039029 901.27188729 905.29296875 898.90234375 C916.94424189 892.07364935 928.63971276 885.34438491 940.45043945 878.79443359 C945.81224848 875.81491073 951.10773452 872.75676687 956.35546875 869.58105469 C961.03667228 866.78235878 965.78119433 864.09391068 970.52059937 861.39532471 C972.35915037 860.34843685 974.19687744 859.30011494 976.03442383 858.25146484 C980.71149371 855.58279385 985.39011955 852.91685842 990.06933594 850.25195312 C999.09527787 845.11118537 1008.11305449 839.96063396 1017.0625 834.6875 C1018.09552246 834.07890137 1018.09552246 834.07890137 1019.14941406 833.45800781 C1022.32022263 831.58749204 1025.48686274 829.71029731 1028.6484375 827.82421875 C1029.73382812 827.18097656 1030.81921875 826.53773438 1031.9375 825.875 C1032.87464844 825.31554687 1033.81179688 824.75609375 1034.77734375 824.1796875 C1037 823 1037 823 1039 823 C1039.04580103 785.35120079 1039.08103119 747.70240579 1039.10213066 710.05358435 C1039.104632 705.60644225 1039.10722065 701.15930022 1039.10986328 696.7121582 C1039.1103879 695.82683103 1039.11091252 694.94150386 1039.11145304 694.02934859 C1039.12015012 679.70371538 1039.13591625 665.37809826 1039.15430559 651.05247458 C1039.17302405 636.3475711 1039.18412084 621.64267603 1039.18817699 606.93776113 C1039.19091801 597.86773266 1039.1995681 588.79774967 1039.21583293 579.7277352 C1039.22642383 573.50384749 1039.22959586 567.27998322 1039.22700275 561.05608716 C1039.22572474 557.46794612 1039.22765169 553.87988443 1039.23841095 550.29175758 C1039.25001324 546.39383217 1039.24595898 542.49600898 1039.24050903 538.59806824 C1039.24633472 537.47449785 1039.2521604 536.35092746 1039.25816262 535.19330949 C1039.2010557 520.04256058 1035.70209089 505.97952799 1024.9375 494.734375 C1013.54834289 484.53924243 1000.17660564 478.23221179 984.72265625 477.9375 C974.49729513 478.56918254 965.6190136 481.81856194 956.6875 486.6875 C955.86209717 487.12956787 955.03669434 487.57163574 954.1862793 488.02709961 C948.38779863 491.16326043 942.77209851 494.51215156 937.1953125 498.02734375 C933.74234923 500.15906313 930.23346185 502.15373103 926.6875 504.125 C919.92430783 507.88766767 913.23754404 511.77076981 906.5625 515.6875 C896.95912639 521.31756707 887.28427776 526.80697883 877.54907227 532.20581055 C872.11025037 535.22817915 866.73460948 538.32688009 861.41162109 541.54882812 C857.47205807 543.91942568 853.48468145 546.20634849 849.5 548.5 C844.4754391 551.39829712 839.45799752 554.30115214 834.5 557.3125 C831.38198328 559.20173269 828.22538984 560.98246277 825.015625 562.7109375 C818.70062877 566.1426117 812.47136934 569.71448317 806.25 573.3125 C805.10909912 573.97113037 803.96819824 574.62976074 802.79272461 575.30834961 C796.08540767 579.18867466 789.41508653 583.12170035 782.78833008 587.13769531 C778.51366074 589.71895461 774.16752568 592.13289616 769.76953125 594.49609375 C764.83714588 597.17446944 759.98354258 599.99207034 755.11669922 602.78710938 C752.75857611 604.13833839 750.39709981 605.48358559 748.03515625 606.828125 C738.9712958 611.99050098 729.93408033 617.19114732 720.95288086 622.49609375 C715.0075259 626.00505903 709.02155371 629.43952277 703.02001953 632.8515625 C687.26901195 641.80206375 687.26901195 641.80206375 671.625 650.9375 C664.83886427 654.94174668 658.02602659 658.89837967 651.1875 662.8125 C650.25695801 663.35189209 649.32641602 663.89128418 648.36767578 664.44702148 C637.60356665 670.57497154 627.61804782 675.18200631 615.1875 675.375 C613.88135742 675.43107422 613.88135742 675.43107422 612.54882812 675.48828125 C599.29702919 675.66125615 587.89242491 669.25220595 576.6875 662.8125 C575.49597701 662.1378713 574.30399408 661.46405435 573.11157227 660.79101562 C565.52683364 656.49791362 557.99338395 652.11711272 550.50390625 647.66015625 C544.6624054 644.19265435 538.76410272 640.82325449 532.875 637.4375 C525.13249728 632.98398049 517.42150991 628.49136525 509.78466797 623.85913086 C505.5497595 621.30041264 501.23541002 618.92968394 496.875 616.59375 C493.3633801 614.64709114 489.93346974 612.58051354 486.5 610.5 C481.32308973 607.36508962 476.10194978 604.36920288 470.76953125 601.50390625 C465.83714588 598.82553056 460.98354258 596.00792966 456.11669922 593.21289062 C453.75857611 591.86166161 451.39709981 590.51641441 449.03515625 589.171875 C440.86757986 584.51988789 432.71207231 579.85331763 424.625 575.0625 C418.11034297 571.20501454 411.53610014 567.46188576 404.9375 563.75 C396.01885299 558.73192234 387.1633611 553.61524815 378.33374023 548.44238281 C369.99670946 543.56485406 361.61496214 538.76839449 353.22244263 533.98736572 C344.86965819 529.22761425 336.54657832 524.41975986 328.25 519.5625 C321.1352266 515.39723289 314.00071277 511.27796611 306.80175781 507.26000977 C301.67067838 504.39189862 296.58240512 501.45338561 291.5 498.5 C285.41455621 494.96641692 279.3174028 491.45597709 273.1875 488 C272.548125 487.63841797 271.90875 487.27683594 271.25 486.90429688 C257.07024539 478.93763304 242.7360764 476.69211524 226.6875 480 C220.80226964 481.69908324 215.88354244 484.82296288 210.8125 488.16015625 C208 490 208 490 205.75 490.99609375 C203.47104291 492.3034419 203.04606848 493.62538042 202 496 C201.08666845 497.22670338 200.14751689 498.43447773 199.1875 499.625 C189.48456486 512.38827409 187.83411524 525.90753342 187.86971474 541.5053997 C187.86777131 542.41155779 187.86582788 543.31771587 187.86382556 544.2513333 C187.85853076 547.27376073 187.8602635 550.29614202 187.86196899 553.318573 C187.85954918 555.51304555 187.85668636 557.70751765 187.85341966 559.9019891 C187.845684 565.92186781 187.84404818 571.94173511 187.84336853 577.96161819 C187.84152571 584.457987 187.83391716 590.9543492 187.82688904 597.45071411 C187.81598814 607.97496815 187.80794039 618.49922107 187.80200893 629.02347903 C187.79196205 646.79046358 187.77270161 664.55742902 187.75046654 682.32440207 C187.74193732 689.16524309 187.73367059 696.00608444 187.72536278 702.84692574 C187.72443777 703.60688948 187.72351276 704.36685322 187.72255972 705.14984617 C187.70058091 723.22994108 187.68078386 741.31003811 187.66210938 759.39013672 C187.6612897 760.18099506 187.66047002 760.9718534 187.6596255 761.78667715 C187.64053985 780.23908982 187.62357705 798.69150238 187.61126709 817.1439209 C187.61073742 817.93764125 187.61020775 818.7313616 187.60966204 819.54913408 C187.60541025 825.94723651 187.60123404 832.34533898 187.59707724 838.74344147 C187.57987423 865.13149243 187.55265799 891.51951717 187.51391686 917.90754562 C187.5084553 921.63504047 187.50312229 925.3625355 187.49787521 929.09003067 C187.49684083 929.82359265 187.49580645 930.55715462 187.49474073 931.31294575 C187.47842875 943.10961139 187.47288783 954.90625865 187.47157755 966.70293449 C187.47007206 978.56046269 187.45766919 990.41793783 187.43482114 1002.27544437 C187.4227905 1008.69712225 187.41564203 1015.11870909 187.42153358 1021.54039764 C187.42683249 1027.42134278 187.41834048 1033.30210228 187.39897721 1039.18301643 C187.39440612 1041.30808039 187.39486603 1043.43316252 187.40092559 1045.55822276 C187.45109647 1064.88057426 185.12555357 1080.54594518 171 1095 C170.34 1095 169.68 1095 169 1095 C168.67 1095.99 168.34 1096.98 168 1098 C155.0065084 1108.33246288 138.99377476 1112.27782382 122.703125 1110.67578125 C111.17117453 1108.93114068 101.97597033 1103.78547671 92 1098 C91.29649414 1097.59330078 90.59298828 1097.18660156 89.86816406 1096.76757812 C86.41947445 1094.76447658 82.9879222 1092.73398448 79.5625 1090.69140625 C74.33708385 1087.58881541 69.04501229 1084.60677277 63.75 1081.625 C50.72368772 1074.2847679 37.72636645 1066.89569903 24.78515625 1059.40625 C12.82796463 1052.48702898 0.83459693 1045.64578511 -11.23291016 1038.9206543 C-17.74518565 1035.28405658 -24.2002369 1031.56777886 -30.61157227 1027.7565918 C-36.52603077 1024.25106603 -42.50858508 1020.87194213 -48.5 1017.5 C-51.42058156 1015.85077283 -54.34043436 1014.20026739 -57.25976562 1012.54882812 C-59.00730072 1011.5610909 -60.75589089 1010.57521642 -62.50585938 1009.59179688 C-79.15010465 1000.21300638 -93.50681998 990.43640462 -99.97368932 971.52768397 C-102.58079554 961.59980429 -101.66640575 950.79323728 -101.60800171 940.62246704 C-101.61090107 937.92291578 -101.61578719 935.22343379 -101.62308562 932.52389753 C-101.63494961 926.66248891 -101.62836827 920.80133022 -101.60948563 914.93994331 C-101.58145029 906.21160585 -101.58231297 897.48343429 -101.58886189 888.75506275 C-101.59909044 874.00822048 -101.58583452 859.2614856 -101.55921555 844.51466751 C-101.53264528 829.76138217 -101.51637346 815.00814289 -101.51332474 800.25483322 C-101.51312616 799.32988719 -101.51292759 798.40494117 -101.512723 797.45196647 C-101.51175831 792.74812797 -101.51096098 788.04428946 -101.51022096 783.34045093 C-101.50459373 749.90890428 -101.47505434 716.47741614 -101.43212891 683.04589844 C-101.39123445 651.16992084 -101.36242045 619.29397061 -101.35009766 587.41796875 C-101.34932875 585.46579271 -101.34855905 583.51361666 -101.34778854 581.56144062 C-101.34473467 573.7748744 -101.34175702 565.98830816 -101.33885597 558.20174189 C-101.30523537 468.55300534 -101.19743305 378.90448384 -101.02848034 289.25590266 C-101.0080257 278.3918608 -100.98847266 267.52781769 -100.9694976 256.66377315 C-100.91071815 223.10886608 -100.84176709 189.55402738 -100.73613465 155.99923122 C-100.72772052 153.32220451 -100.71930752 150.6451778 -100.71089554 147.96815109 C-100.70677161 146.66004049 -100.70264769 145.35192989 -100.69839879 144.00417957 C-100.67056294 134.96689162 -100.64990764 125.92960559 -100.63251877 116.89229202 C-100.61180951 106.20335429 -100.58094528 95.51450985 -100.53588405 84.82564577 C-100.51364367 79.50042272 -100.49582501 74.17529446 -100.49095201 68.8500247 C-100.48640178 64.04037158 -100.46813271 59.23097308 -100.43887086 54.42140858 C-100.4307544 52.70202016 -100.4275418 50.98259947 -100.42994325 49.26319356 C-100.45103037 29.69040286 -96.74342246 13.98589305 -82.79296875 -0.4921875 C-56.35873842 -24.22753837 -27.3498385 -15.74247998 0 0 Z " fill="#007FFF" transform="translate(101,15)"/>
<path d="M0 0 C10.81623205 9.20343894 18.07154382 20.91748389 19.24057579 35.276371 C19.53048766 41.14853706 19.48855074 47.01759636 19.44799805 52.89501953 C19.45450464 55.14065394 19.46357515 57.38628215 19.47499084 59.63189697 C19.49791769 65.6856347 19.48344466 71.73873575 19.46052146 77.79245234 C19.44149479 84.15199747 19.45278092 90.5115029 19.45942688 96.87106323 C19.46615555 108.22681075 19.443498 119.58224173 19.40848748 130.93791114 C19.37758609 141.20659152 19.37523607 151.47494694 19.39428711 161.74365234 C19.41883333 174.98929433 19.41777363 188.23471038 19.39551735 201.48037338 C19.38756319 206.52072079 19.3894845 211.56091843 19.39954185 216.60126114 C19.4101453 222.54250575 19.39581604 228.48319731 19.36279869 234.42435455 C19.35463894 236.59542463 19.35481909 238.76654581 19.36427689 240.93761063 C19.43675428 259.63837158 16.59649483 273.98970496 3.1875 288 C-2.39382267 293.28496925 -8.46101142 296.85433461 -15.22265625 300.453125 C-18.68464311 302.39638943 -21.99308788 304.51297771 -25.3125 306.6875 C-30.28438664 309.93953895 -35.32174295 312.89196328 -40.5703125 315.68359375 C-44.66006921 317.92655149 -48.59431766 320.40482989 -52.5546875 322.8671875 C-56.96696548 325.60361384 -61.42076142 328.27010626 -65.875 330.9375 C-67.14875488 331.70030273 -67.14875488 331.70030273 -68.44824219 332.47851562 C-70.19425461 333.52389886 -71.94034915 334.56914497 -73.68652344 335.61425781 C-76.27438891 337.16466736 -78.86021194 338.7184229 -81.4453125 340.2734375 C-89.21459474 344.94563227 -96.99162579 349.60208805 -104.8125 354.1875 C-113.42086478 359.23517332 -121.97580409 364.36998034 -130.52734375 369.51318359 C-133.49647036 371.29809508 -136.46681566 373.0809636 -139.4375 374.86328125 C-140.48454102 375.49161865 -141.53158203 376.11995605 -142.61035156 376.76733398 C-144.7417664 378.04543537 -146.87392624 379.3222952 -149.00683594 380.59790039 C-153.9876622 383.57894258 -158.95608665 386.57565936 -163.890625 389.6328125 C-172.77688631 395.11338779 -181.25651638 400.13035683 -191.3125 403.1875 C-191.92480469 403.38214844 -192.53710938 403.57679688 -193.16796875 403.77734375 C-208.30219586 406.67186806 -223.64874805 402.74725826 -236.3125 394.1875 C-247.01646232 386.83273344 -254.36448839 377.6178732 -258.3125 365.1875 C-258.82363814 363.66553182 -258.82363814 363.66553182 -259.34510231 362.11281681 C-260.59015987 357.7053572 -260.59660811 353.45232848 -260.57992554 348.89805603 C-260.58445665 347.9831537 -260.58898776 347.06825136 -260.59365618 346.12562472 C-260.60628092 343.07059574 -260.60468102 340.01574548 -260.60302734 336.96069336 C-260.60901394 334.76565319 -260.61581979 332.57061513 -260.62338257 330.37557983 C-260.6410401 324.41862147 -260.64573796 318.46172058 -260.64701414 312.50473857 C-260.64843687 308.77900201 -260.65270886 305.05328001 -260.65800858 301.32754707 C-260.67555621 288.98887329 -260.68484892 276.65023015 -260.68334763 264.31154435 C-260.68326772 263.6471063 -260.6831878 262.98266824 -260.68310547 262.2980957 C-260.68298283 261.3002095 -260.68298283 261.3002095 -260.68285771 260.28216399 C-260.68204587 249.51554032 -260.7011593 238.74905692 -260.7293822 227.98247378 C-260.75818677 216.90579178 -260.77155292 205.82918135 -260.77019465 194.75246149 C-260.76968604 188.54252599 -260.77531296 182.33274912 -260.79655075 176.1228466 C-260.8159999 170.27622477 -260.81601188 164.42991176 -260.80151749 158.58327866 C-260.79943631 156.44606001 -260.80408869 154.3088217 -260.8162384 152.17163658 C-260.91575784 133.4415543 -258.79416357 118.19085863 -245.6875 103.8125 C-238.61566246 96.99116352 -230.22123413 92.38536533 -221.72070312 87.56152344 C-218.38447018 85.65800367 -215.09803193 83.67677983 -211.8125 81.6875 C-210.61490296 80.96821756 -209.41697902 80.24947916 -208.21875 79.53125 C-207.6 79.16 -206.98125 78.78875 -206.34375 78.40625 C-197.63932292 73.18359375 -188.93489583 67.9609375 -180.23046875 62.73828125 C-179.60543457 62.36324463 -178.98040039 61.98820801 -178.33642578 61.60180664 C-177.11740776 60.87042824 -175.89833273 60.13914485 -174.67919922 59.40795898 C-171.66888943 57.60234464 -168.65965102 55.79498633 -165.65234375 53.984375 C-164.4141367 53.23945998 -163.17585506 52.49466894 -161.9375 51.75 C-161.32422852 51.38108643 -160.71095703 51.01217285 -160.07910156 50.63208008 C-156.75841717 48.63923818 -153.4276785 46.66551846 -150.08203125 44.71484375 C-142.67753388 40.39638972 -135.37372721 35.99192689 -128.19897461 31.30078125 C-123.96334977 28.55163021 -119.61552879 26.14204465 -115.15625 23.78125 C-111.77749093 21.88765975 -108.55213977 19.80760983 -105.3125 17.6875 C-100.37555063 14.45662385 -95.37402593 11.54360196 -90.15625 8.78125 C-86.77743914 6.88763073 -83.55251713 4.80710056 -80.3125 2.6875 C-74.46588696 -1.12633708 -68.54041662 -4.64527024 -62.3125 -7.8125 C-61.55582031 -8.20308594 -60.79914063 -8.59367188 -60.01953125 -8.99609375 C-39.55115528 -18.8861232 -17.47341283 -13.17842128 0 0 Z " fill="#007FFF" transform="translate(1981.3125,14.8125)"/>
</svg>
