<svg style="max-height: 500px" version="1.1" xmlns:xlink="http://www.w3.org/1999/xlink" xmlns="http://www.w3.org/2000/svg" viewBox="901.9032620922385 20.735999999999997 2043.1046119235098 2112.48" width="2043.1046119235098" height="2112.48">
<g><path d="M 2359.5,74.5 C 2324.39,65.5042 2288.73,62.3376 2252.5,65C 2227.46,66.2982 2202.46,68.1315 2177.5,70.5C 2176.27,70.4805 2175.27,70.1471 2174.5,69.5C 2218.08,64.8459 2261.58,62.8459 2305,63.5C 2317.2,64.7967 2329.36,66.63 2341.5,69C 2347.8,70.2364 2353.8,72.0697 2359.5,74.5 Z" fill="#505050" style="opacity: 0.725; --darkreader-inline-fill: var(--darkreader-background-505050, #3c4144);" data-darkreader-inline-fill=""/></g>
<g><path d="M 2359.5,74.5 C 2374.5,78.9961 2388.83,85.1628 2402.5,93C 2415.67,101.084 2428.67,109.417 2441.5,118C 2547.08,192.276 2652.41,266.776 2757.5,341.5C 2757.51,343.017 2758.18,344.184 2759.5,345C 2762.55,346.527 2765.55,348.027 2768.5,349.5C 2778.03,355.098 2787.03,361.431 2795.5,368.5C 2798,371.994 2801.33,374.327 2805.5,375.5C 2829.87,391.015 2852.7,408.682 2874,428.5C 2885.69,441.767 2891.53,457.1 2891.5,474.5C 2891.5,943.167 2891.5,1411.83 2891.5,1880.5C 2892.83,1881.5 2892.83,1882.5 2891.5,1883.5C 2890.56,1887.74 2890.23,1892.07 2890.5,1896.5C 2890.43,1905.27 2889.1,1914.27 2886.5,1923.5C 2885.08,1925.51 2884.41,1927.85 2884.5,1930.5C 2880.45,1946.62 2872.78,1960.62 2861.5,1972.5C 2858.83,1974.5 2856.5,1976.83 2854.5,1979.5C 2853.04,1981.46 2851.37,1983.3 2849.5,1985C 2844.61,1988.95 2839.27,1992.11 2833.5,1994.5C 2830.52,1995.33 2827.85,1996.66 2825.5,1998.5C 2825.16,1999.34 2824.49,1999.67 2823.5,1999.5C 2809.96,2004.3 2796.3,2008.3 2782.5,2011.5C 2780.74,2012.46 2778.74,2012.79 2776.5,2012.5C 2773.94,2012.2 2771.61,2012.53 2769.5,2013.5C 2769.17,2013.5 2768.83,2013.5 2768.5,2013.5C 2765.61,2013.19 2762.95,2013.53 2760.5,2014.5C 2760.17,2014.5 2759.83,2014.5 2759.5,2014.5C 2754.97,2014.18 2750.63,2014.52 2746.5,2015.5C 2746.06,2016.51 2745.4,2016.51 2744.5,2015.5C 2739.31,2015.18 2734.31,2015.51 2729.5,2016.5C 2729.06,2017.51 2728.4,2017.51 2727.5,2016.5C 2722.64,2016.18 2717.97,2016.51 2713.5,2017.5C 2713.06,2018.51 2712.4,2018.51 2711.5,2017.5C 2706.31,2017.18 2701.31,2017.51 2696.5,2018.5C 2696.06,2019.51 2695.4,2019.51 2694.5,2018.5C 2689.97,2018.18 2685.63,2018.52 2681.5,2019.5C 2680.5,2020.83 2679.5,2020.83 2678.5,2019.5C 2673.64,2019.18 2668.97,2019.51 2664.5,2020.5C 2664.06,2021.51 2663.4,2021.51 2662.5,2020.5C 2657.64,2020.18 2652.97,2020.51 2648.5,2021.5C 2647.5,2022.83 2646.5,2022.83 2645.5,2021.5C 2640.64,2021.18 2635.97,2021.51 2631.5,2022.5C 2630.5,2023.83 2629.5,2023.83 2628.5,2022.5C 2623.97,2022.18 2619.63,2022.52 2615.5,2023.5C 2614.5,2024.83 2613.5,2024.83 2612.5,2023.5C 2607.64,2023.18 2602.97,2023.51 2598.5,2024.5C 2597.83,2024.5 2597.17,2024.5 2596.5,2024.5C 2591.64,2024.18 2586.97,2024.51 2582.5,2025.5C 2581.5,2026.83 2580.5,2026.83 2579.5,2025.5C 2574.64,2025.18 2569.97,2025.51 2565.5,2026.5C 2471.78,2032.74 2377.78,2038.41 2283.5,2043.5C 2199.15,2047.92 2114.82,2052.76 2030.5,2058C 2022.61,2058.13 2014.94,2058.97 2007.5,2060.5C 2007.17,2060.5 2006.83,2060.5 2006.5,2060.5C 2005.21,2059.84 2003.71,2059.51 2002,2059.5C 1992.62,2059.94 1983.46,2060.94 1974.5,2062.5C 1969.21,2063.34 1963.88,2063.68 1958.5,2063.5C 1957.04,2062.84 1955.37,2062.51 1953.5,2062.5C 1943.29,2062.96 1933.29,2063.96 1923.5,2065.5C 1918.56,2066.39 1913.56,2066.73 1908.5,2066.5C 1908.08,2065.88 1907.42,2065.54 1906.5,2065.5C 1901.68,2066.06 1897.01,2066.73 1892.5,2067.5C 1890.83,2068.83 1889.17,2068.83 1887.5,2067.5C 1876.97,2067.47 1866.64,2068.14 1856.5,2069.5C 1856.17,2069.5 1855.83,2069.5 1855.5,2069.5C 1855.57,2069.06 1855.4,2068.73 1855,2068.5C 1849.73,2069.15 1844.57,2069.81 1839.5,2070.5C 1839.17,2070.5 1838.83,2070.5 1838.5,2070.5C 1838.57,2070.06 1838.4,2069.73 1838,2069.5C 1832.73,2070.15 1827.57,2070.81 1822.5,2071.5C 1805.97,2071.77 1789.64,2072.77 1773.5,2074.5C 1679.45,2079.42 1585.28,2085.09 1491,2091.5C 1490.67,2091.17 1490.33,2090.83 1490,2090.5C 1474.12,2091.78 1458.62,2093.12 1443.5,2094.5C 1443.17,2094.5 1442.83,2094.5 1442.5,2094.5C 1427.47,2094.47 1412.14,2094.47 1396.5,2094.5C 1396.17,2094.5 1395.83,2094.5 1395.5,2094.5C 1381.49,2093.05 1367.49,2090.72 1353.5,2087.5C 1334.67,2082.25 1318,2073.08 1303.5,2060C 1284.78,2040.79 1267.78,2020.29 1252.5,1998.5C 1251.86,1996.21 1250.53,1994.54 1248.5,1993.5C 1203.93,1936.02 1159.59,1878.36 1115.5,1820.5C 1114.92,1818.25 1113.59,1816.58 1111.5,1815.5C 1077.25,1770.73 1042.75,1726.07 1008,1681.5C 996.563,1666.29 986.396,1650.29 977.5,1633.5C 976.921,1630.67 975.588,1628.34 973.5,1626.5C 958.149,1599.21 949.482,1571.21 947.5,1542.5C 947.665,1539.48 947.498,1536.48 947,1533.5C 946.722,1532.58 946.222,1531.92 945.5,1531.5C 945.5,1114.17 945.5,696.833 945.5,279.5C 946.222,279.082 946.722,278.416 947,277.5C 947.498,274.518 947.665,271.518 947.5,268.5C 948.591,243.482 956.757,219.815 972,197.5C 973.039,196.29 974.206,195.29 975.5,194.5C 980.167,190.5 984.5,186.167 988.5,181.5C 992.652,176.682 997.652,173.015 1003.5,170.5C 1008.32,168.926 1012.65,166.593 1016.5,163.5C 1018.3,162.27 1020.3,161.604 1022.5,161.5C 1029.07,159.946 1035.41,157.946 1041.5,155.5C 1041.83,155.5 1042.17,155.5 1042.5,155.5C 1069.24,152.164 1095.9,149.498 1122.5,147.5C 1125.84,147.556 1129.34,146.89 1133,145.5C 1134.14,145.619 1135.31,145.952 1136.5,146.5C 1141.03,146.818 1145.37,146.485 1149.5,145.5C 1152.84,145.556 1156.34,144.89 1160,143.5C 1161.76,144.074 1163.6,144.407 1165.5,144.5C 1170.59,144.779 1175.59,144.445 1180.5,143.5C 1182.68,142.897 1184.85,142.23 1187,141.5C 1189.47,141.606 1191.97,141.939 1194.5,142.5C 1198.7,142.817 1202.7,142.483 1206.5,141.5C 1206.83,141.5 1207.17,141.5 1207.5,141.5C 1212.03,141.818 1216.37,141.485 1220.5,140.5C 1225.03,140.818 1229.37,140.485 1233.5,139.5C 1241.11,137.894 1248.61,136.894 1256,136.5C 1260.42,137.448 1265.42,137.115 1271,135.5C 1277,135.5 1283,135.5 1289,135.5C 1292,134.833 1295,134.167 1298,133.5C 1299.4,134.051 1300.73,134.384 1302,134.5C 1399.49,126.633 1498.32,119.3 1598.5,112.5C 1624.75,111.816 1650.75,109.816 1676.5,106.5C 1685.8,105.477 1695.13,104.81 1704.5,104.5C 1709.23,104.66 1714.06,104.994 1719,105.5C 1723,104.819 1726.84,103.819 1730.5,102.5C 1730.83,102.5 1731.17,102.5 1731.5,102.5C 1732.79,103.158 1734.29,103.492 1736,103.5C 1741.82,102.898 1747.66,102.398 1753.5,102C 1754.74,101.768 1755.74,101.268 1756.5,100.5C 1775.46,98.7592 1794.46,97.4259 1813.5,96.5C 1813.56,97.0431 1813.89,97.3764 1814.5,97.5C 1818.97,96.8864 1823.3,96.2197 1827.5,95.5C 1845.74,93.5544 1864.07,92.2211 1882.5,91.5C 1891.7,91.5337 1900.7,90.8671 1909.5,89.5C 1932.36,88.4863 1955.03,86.8196 1977.5,84.5C 2036.19,80.7601 2094.86,76.5935 2153.5,72C 2155.06,71.79 2156.39,71.29 2157.5,70.5C 2157.83,70.5 2158.17,70.5 2158.5,70.5C 2162.93,71.8607 2167.26,71.5274 2171.5,69.5C 2172.5,69.5 2173.5,69.5 2174.5,69.5C 2175.27,70.1471 2176.27,70.4805 2177.5,70.5C 2202.46,68.1315 2227.46,66.2982 2252.5,65C 2288.73,62.3376 2324.39,65.5042 2359.5,74.5 Z" fill="#000000" style="opacity: 1; --darkreader-inline-fill: var(--darkreader-background-000000, #000000);" data-darkreader-inline-fill=""/></g>
<g><path d="M 2171.5,69.5 C 2167.26,71.5274 2162.93,71.8607 2158.5,70.5C 2162.82,70.0728 2167.16,69.7395 2171.5,69.5 Z" fill="#4c4c4c" style="opacity: 0.988; --darkreader-inline-fill: var(--darkreader-text-4c4c4c, #b8b2a9);" data-darkreader-inline-fill=""/></g>
<g><path d="M 2157.5,70.5 C 2156.39,71.29 2155.06,71.79 2153.5,72C 2094.86,76.5935 2036.19,80.7601 1977.5,84.5C 2037.33,79.532 2097.33,74.8653 2157.5,70.5 Z" fill="#494949" style="opacity: 0.725; --darkreader-inline-fill: var(--darkreader-background-494949, #373c3e);" data-darkreader-inline-fill=""/></g>
<g><path d="M 1977.5,84.5 C 1955.03,86.8196 1932.36,88.4863 1909.5,89.5C 1932.18,87.0708 1954.84,85.4041 1977.5,84.5 Z" fill="#494949" style="opacity: 0.725; --darkreader-inline-fill: var(--darkreader-text-494949, #bab4ab);" data-darkreader-inline-fill=""/></g>
<g><path d="M 1909.5,89.5 C 1900.7,90.8671 1891.7,91.5337 1882.5,91.5C 1891.3,90.1329 1900.3,89.4663 1909.5,89.5 Z" fill="#484848" style="opacity: 0.725; --darkreader-inline-fill: var(--darkreader-text-484848, #bbb5ac);" data-darkreader-inline-fill=""/></g>
<g><path d="M 1827.5,95.5 C 1823.3,96.2197 1818.97,96.8864 1814.5,97.5C 1813.89,97.3764 1813.56,97.0431 1813.5,96.5C 1818.07,95.559 1822.74,95.2256 1827.5,95.5 Z" fill="#505050" style="opacity: 0.518; --darkreader-inline-fill: var(--darkreader-text-505050, #b5afa6);" data-darkreader-inline-fill=""/></g>
<g><path d="M 1756.5,100.5 C 1755.74,101.268 1754.74,101.768 1753.5,102C 1747.66,102.398 1741.82,102.898 1736,103.5C 1734.29,103.492 1732.79,103.158 1731.5,102.5C 1739.78,101.503 1748.12,100.837 1756.5,100.5 Z" fill="#333333" style="opacity: 0.992; --darkreader-inline-fill: var(--darkreader-text-333333, #c8c3bc);" data-darkreader-inline-fill=""/></g>
<g><path d="M 1730.5,102.5 C 1726.84,103.819 1723,104.819 1719,105.5C 1714.06,104.994 1709.23,104.66 1704.5,104.5C 1713.13,103.477 1721.79,102.811 1730.5,102.5 Z" fill="#313131" style="opacity: 0.992; --darkreader-inline-fill: var(--darkreader-text-313131, #c9c4bd);" data-darkreader-inline-fill=""/></g>
<g><path d="M 1676.5,106.5 C 1650.75,109.816 1624.75,111.816 1598.5,112.5C 1624.32,110.036 1650.32,108.036 1676.5,106.5 Z" fill="#2f2f2f" style="opacity: 0.992; --darkreader-inline-fill: var(--darkreader-text-2f2f2f, #cac6bf);" data-darkreader-inline-fill=""/></g>
<g><path d="M 1233.5,139.5 C 1229.37,140.485 1225.03,140.818 1220.5,140.5C 1223.23,139.795 1226.06,139.128 1229,138.5C 1230.63,138.713 1232.13,139.046 1233.5,139.5 Z" fill="#494949" style="opacity: 0.988; --darkreader-inline-fill: var(--darkreader-text-494949, #bab4ab);" data-darkreader-inline-fill=""/></g>
<g><path d="M 1220.5,140.5 C 1216.37,141.485 1212.03,141.818 1207.5,141.5C 1209.89,140.79 1212.39,140.123 1215,139.5C 1216.76,140.074 1218.6,140.407 1220.5,140.5 Z" fill="#474747" style="opacity: 0.725; --darkreader-inline-fill: var(--darkreader-text-474747, #bbb5ac);" data-darkreader-inline-fill=""/></g>
<g><path d="M 1206.5,141.5 C 1202.7,142.483 1198.7,142.817 1194.5,142.5C 1196.89,141.79 1199.39,141.123 1202,140.5C 1203.63,140.713 1205.13,141.046 1206.5,141.5 Z" fill="#484848" style="opacity: 0.988; --darkreader-inline-fill: var(--darkreader-text-484848, #bbb5ac);" data-darkreader-inline-fill=""/></g>
<g><path d="M 1180.5,143.5 C 1175.59,144.445 1170.59,144.779 1165.5,144.5C 1168.56,143.799 1171.73,143.132 1175,142.5C 1176.79,143.122 1178.62,143.456 1180.5,143.5 Z" fill="#4d4d4d" style="opacity: 0.988; --darkreader-inline-fill: var(--darkreader-text-4d4d4d, #b7b1a8);" data-darkreader-inline-fill=""/></g>
<g><path d="M 1149.5,145.5 C 1145.37,146.485 1141.03,146.818 1136.5,146.5C 1140.23,145.804 1144.06,145.138 1148,144.5C 1148.38,145.056 1148.88,145.389 1149.5,145.5 Z" fill="#5e5e5e" style="opacity: 0.337; --darkreader-inline-fill: var(--darkreader-text-5e5e5e, #ada59b);" data-darkreader-inline-fill=""/></g>
<g><path d="M 1122.5,147.5 C 1095.9,149.498 1069.24,152.164 1042.5,155.5C 1050.12,153.253 1057.96,151.587 1066,150.5C 1066.33,150.833 1066.67,151.167 1067,151.5C 1084.92,150.292 1102.92,148.626 1121,146.5C 1121.38,147.056 1121.88,147.389 1122.5,147.5 Z" fill="#5a5a5a" style="opacity: 0.337; --darkreader-inline-fill: var(--darkreader-text-5a5a5a, #afa89e);" data-darkreader-inline-fill=""/></g>
<g><path d="M 1041.5,155.5 C 1035.41,157.946 1029.07,159.946 1022.5,161.5C 1028.4,158.436 1034.73,156.436 1041.5,155.5 Z" fill="#5e5e5e" style="opacity: 0.337; --darkreader-inline-fill: var(--darkreader-text-5e5e5e, #ada59b);" data-darkreader-inline-fill=""/></g>
<g><path d="M 1016.5,163.5 C 1012.65,166.593 1008.32,168.926 1003.5,170.5C 1007.35,167.407 1011.68,165.074 1016.5,163.5 Z" fill="#585858" style="opacity: 0.518; --darkreader-inline-fill: var(--darkreader-text-585858, #b0aa9f);" data-darkreader-inline-fill=""/></g>
<g><path d="M 2280.5,411.5 C 2272.95,411.406 2265.62,412.072 2258.5,413.5C 2171.85,418.749 2085.19,423.749 1998.5,428.5C 1989.97,428.566 1981.64,429.233 1973.5,430.5C 1898.86,435.224 1824.19,439.557 1749.5,443.5C 1740.97,443.566 1732.64,444.233 1724.5,445.5C 1717.51,445.999 1710.51,446.332 1703.5,446.5C 1686.99,447.175 1670.66,448.175 1654.5,449.5C 1643.32,449.741 1632.32,450.407 1621.5,451.5C 1616.11,451.267 1610.77,451.6 1605.5,452.5C 1594.98,452.694 1584.65,453.361 1574.5,454.5C 1565.49,454.7 1556.49,455.034 1547.5,455.5C 1542.16,455.334 1536.82,455.501 1531.5,456C 1529.62,456.198 1527.95,456.698 1526.5,457.5C 1511.49,457.876 1496.49,458.543 1481.5,459.5C 1469.28,459.639 1457.28,460.639 1445.5,462.5C 1417.15,463.933 1388.82,463.766 1360.5,462C 1341.01,457.62 1323.01,449.954 1306.5,439C 1244.85,391.582 1184.01,343.082 1124,293.5C 1117.89,282.892 1119.72,274.059 1129.5,267C 1139.15,261.671 1149.48,258.671 1160.5,258C 1206.15,254.548 1251.82,251.382 1297.5,248.5C 1310.37,248.154 1323.03,247.154 1335.5,245.5C 1340.64,244.512 1345.97,244.179 1351.5,244.5C 1395.71,241.92 1439.71,238.586 1483.5,234.5C 1511.44,231.941 1539.44,229.941 1567.5,228.5C 1577.7,228.572 1587.7,227.905 1597.5,226.5C 1623.76,224.175 1650.09,222.175 1676.5,220.5C 1695.06,220.308 1713.4,218.974 1731.5,216.5C 1740.34,215.647 1749.34,214.98 1758.5,214.5C 1761.45,214.223 1764.28,214.556 1767,215.5C 1782.6,213.935 1798.1,212.268 1813.5,210.5C 1837.44,208.131 1861.44,206.464 1885.5,205.5C 1892.05,205.546 1898.38,204.879 1904.5,203.5C 2025.61,194.889 2146.78,186.556 2268,178.5C 2316.64,177.335 2360.48,190.835 2399.5,219C 2467.15,268.823 2535.15,318.156 2603.5,367C 2610.66,372.489 2614.16,379.656 2614,388.5C 2612.99,390.259 2611.49,391.426 2609.5,392C 2499.86,398.965 2390.19,405.465 2280.5,411.5 Z" fill="#fefefe" style="opacity: 1; --darkreader-inline-fill: var(--darkreader-background-fefefe, #191b1c);" data-darkreader-inline-fill=""/></g>
<g><path d="M 988.5,181.5 C 984.5,186.167 980.167,190.5 975.5,194.5C 978.833,189.167 983.167,184.833 988.5,181.5 Z" fill="#3a3a3a" style="opacity: 0.992; --darkreader-inline-fill: var(--darkreader-text-3a3a3a, #c3beb6);" data-darkreader-inline-fill=""/></g>
<g><path d="M 1904.5,203.5 C 1898.38,204.879 1892.05,205.546 1885.5,205.5C 1891.62,204.121 1897.95,203.454 1904.5,203.5 Z" fill="#9a9a9a" style="opacity: 1; --darkreader-inline-fill: var(--darkreader-text-9a9a9a, #a8a195);" data-darkreader-inline-fill=""/></g>
<g><path d="M 1813.5,210.5 C 1798.1,212.268 1782.6,213.935 1767,215.5C 1764.28,214.556 1761.45,214.223 1758.5,214.5C 1776.63,212.47 1794.97,211.137 1813.5,210.5 Z" fill="#b2b2b2" style="opacity: 1; --darkreader-inline-fill: var(--darkreader-text-b2b2b2, #b7b1a8);" data-darkreader-inline-fill=""/></g>
<g><path d="M 1731.5,216.5 C 1713.4,218.974 1695.06,220.308 1676.5,220.5C 1694.63,218.466 1712.97,217.133 1731.5,216.5 Z" fill="#b2b2b2" style="opacity: 1; --darkreader-inline-fill: var(--darkreader-text-b2b2b2, #b7b1a8);" data-darkreader-inline-fill=""/></g>
<g><path d="M 1597.5,226.5 C 1587.7,227.905 1577.7,228.572 1567.5,228.5C 1577.3,227.021 1587.3,226.354 1597.5,226.5 Z" fill="#a9a9a9" style="opacity: 1; --darkreader-inline-fill: var(--darkreader-text-a9a9a9, #b2aba1);" data-darkreader-inline-fill=""/></g>
<g><path d="M 1483.5,234.5 C 1439.71,238.586 1395.71,241.92 1351.5,244.5C 1395.3,240.514 1439.3,237.18 1483.5,234.5 Z" fill="#b5b5b5" style="opacity: 1; --darkreader-inline-fill: var(--darkreader-text-b5b5b5, #b9b3aa);" data-darkreader-inline-fill=""/></g>
<g><path d="M 1335.5,245.5 C 1323.03,247.154 1310.37,248.154 1297.5,248.5C 1309.96,246.695 1322.62,245.695 1335.5,245.5 Z" fill="#b7b7b7" style="opacity: 1; --darkreader-inline-fill: var(--darkreader-text-b7b7b7, #bbb5ac);" data-darkreader-inline-fill=""/></g>
<g><path d="M 947.5,268.5 C 947.665,271.518 947.498,274.518 947,277.5C 946.722,278.416 946.222,279.082 945.5,279.5C 945.335,276.15 945.502,272.817 946,269.5C 946.383,268.944 946.883,268.611 947.5,268.5 Z" fill="#4a4a4a" style="opacity: 0.988; --darkreader-inline-fill: var(--darkreader-text-4a4a4a, #b9b3aa);" data-darkreader-inline-fill=""/></g>
<g><path d="M 2757.5,341.5 C 2761.74,343.445 2765.4,346.112 2768.5,349.5C 2765.55,348.027 2762.55,346.527 2759.5,345C 2758.18,344.184 2757.51,343.017 2757.5,341.5 Z" fill="#3f3f3f" style="opacity: 0.725; --darkreader-inline-fill: var(--darkreader-text-3f3f3f, #c0bbb3);" data-darkreader-inline-fill=""/></g>
<g><path d="M 2795.5,368.5 C 2799.39,370.062 2802.73,372.395 2805.5,375.5C 2801.33,374.327 2798,371.994 2795.5,368.5 Z" fill="#3e3e3e" style="opacity: 0.992; --darkreader-inline-fill: var(--darkreader-text-3e3e3e, #c1bbb3);" data-darkreader-inline-fill=""/></g>
<g><path d="M 2280.5,411.5 C 2273.37,412.815 2266.04,413.482 2258.5,413.5C 2265.62,412.072 2272.95,411.406 2280.5,411.5 Z" fill="#6f6f6f" style="opacity: 0.988; --darkreader-inline-fill: var(--darkreader-text-6f6f6f, #a29a8e);" data-darkreader-inline-fill=""/></g>
<g><path d="M 1998.5,428.5 C 1990.38,429.962 1982.04,430.629 1973.5,430.5C 1981.64,429.233 1989.97,428.566 1998.5,428.5 Z" fill="#7f7f7f" style="opacity: 1; --darkreader-inline-fill: var(--darkreader-text-7f7f7f, #988f81);" data-darkreader-inline-fill=""/></g>
<g><path d="M 1749.5,443.5 C 1741.38,444.962 1733.04,445.629 1724.5,445.5C 1732.64,444.233 1740.97,443.566 1749.5,443.5 Z" fill="#797979" style="opacity: 1; --darkreader-inline-fill: var(--darkreader-text-797979, #9c9386);" data-darkreader-inline-fill=""/></g>
<g><path d="M 1703.5,446.5 C 1689.38,448.391 1675.05,449.391 1660.5,449.5C 1658.5,449.5 1656.5,449.5 1654.5,449.5C 1670.66,448.175 1686.99,447.175 1703.5,446.5 Z" fill="#555555" style="opacity: 0.992; --darkreader-inline-fill: var(--darkreader-text-555555, #b2aca2);" data-darkreader-inline-fill=""/></g>
<g><path d="M 1654.5,449.5 C 1656.5,449.5 1658.5,449.5 1660.5,449.5C 1647.7,450.977 1634.7,451.644 1621.5,451.5C 1632.32,450.407 1643.32,449.741 1654.5,449.5 Z" fill="#4e4e4e" style="opacity: 0.992; --darkreader-inline-fill: var(--darkreader-text-4e4e4e, #b7b0a7);" data-darkreader-inline-fill=""/></g>
<g><path d="M 1605.5,452.5 C 1595.38,454.07 1585.04,454.736 1574.5,454.5C 1584.65,453.361 1594.98,452.694 1605.5,452.5 Z" fill="#484848" style="opacity: 0.992; --darkreader-inline-fill: var(--darkreader-text-484848, #bbb5ac);" data-darkreader-inline-fill=""/></g>
<g><path d="M 1547.5,455.5 C 1540.68,456.491 1533.68,457.158 1526.5,457.5C 1527.95,456.698 1529.62,456.198 1531.5,456C 1536.82,455.501 1542.16,455.334 1547.5,455.5 Z" fill="#b1b1b1" style="opacity: 1; --darkreader-inline-fill: var(--darkreader-text-b1b1b1, #b7b0a7);" data-darkreader-inline-fill=""/></g>
<g><path d="M 1481.5,459.5 C 1469.69,461.067 1457.69,462.067 1445.5,462.5C 1457.28,460.639 1469.28,459.639 1481.5,459.5 Z" fill="#9d9d9d" style="opacity: 1; --darkreader-inline-fill: var(--darkreader-text-9d9d9d, #aaa398);" data-darkreader-inline-fill=""/></g>
<g><path d="M 2891.5,474.5 C 2892.29,475.609 2892.79,476.942 2893,478.5C 2893.17,711.667 2893.33,944.833 2893.5,1178C 2893.33,1411.17 2893.17,1644.33 2893,1877.5C 2892.77,1878.74 2892.27,1879.74 2891.5,1880.5C 2891.5,1411.83 2891.5,943.167 2891.5,474.5 Z" fill="#656565" style="opacity: 0.337; --darkreader-inline-fill: var(--darkreader-background-656565, #4c5256);" data-darkreader-inline-fill=""/></g>
<g><path d="M 2430.5,1883.5 C 2419.15,1883.97 2407.82,1884.64 2396.5,1885.5C 2396.17,1885.5 2395.83,1885.5 2395.5,1885.5C 2384.16,1886.05 2372.82,1886.72 2361.5,1887.5C 2355.82,1887.63 2350.15,1887.97 2344.5,1888.5C 2327.16,1889.34 2309.82,1890.34 2292.5,1891.5C 2282.76,1891.84 2273.09,1892.5 2263.5,1893.5C 2253.96,1893.34 2244.63,1894.01 2235.5,1895.5C 2221.74,1895.41 2208.07,1896.08 2194.5,1897.5C 2184.96,1897.34 2175.63,1898.01 2166.5,1899.5C 2057.17,1905.46 1947.83,1911.46 1838.5,1917.5C 1825.47,1917.71 1812.47,1918.38 1799.5,1919.5C 1789.65,1919.64 1779.98,1920.3 1770.5,1921.5C 1770.17,1921.5 1769.83,1921.5 1769.5,1921.5C 1757.98,1921.51 1746.64,1922.18 1735.5,1923.5C 1723.98,1923.51 1712.64,1924.18 1701.5,1925.5C 1690.03,1926.86 1678.36,1927.53 1666.5,1927.5C 1660.49,1927.33 1654.49,1927.5 1648.5,1928C 1646.94,1928.21 1645.61,1928.71 1644.5,1929.5C 1634.84,1930.03 1625.17,1930.36 1615.5,1930.5C 1605.3,1930.35 1595.3,1931.02 1585.5,1932.5C 1584.17,1932.5 1582.83,1932.5 1581.5,1932.5C 1575.16,1932.33 1568.82,1932.5 1562.5,1933C 1560.94,1933.21 1559.61,1933.71 1558.5,1934.5C 1525.48,1935.85 1492.48,1937.68 1459.5,1940C 1443.8,1940.79 1428.13,1940.62 1412.5,1939.5C 1410.49,1938.08 1408.15,1937.41 1405.5,1937.5C 1377.57,1932.72 1359.9,1916.72 1352.5,1889.5C 1352.43,1886.57 1351.77,1883.91 1350.5,1881.5C 1350.13,1875.83 1349.63,1870.16 1349,1864.5C 1348.33,1466.83 1348.33,1069.17 1349,671.5C 1348.86,653.707 1353.53,637.374 1363,622.5C 1374.29,610.57 1388.12,603.904 1404.5,602.5C 1412.37,602.539 1420.04,601.872 1427.5,600.5C 1437.16,599.908 1446.82,599.575 1456.5,599.5C 1465.73,599.877 1474.73,599.211 1483.5,597.5C 1497.16,596.682 1510.82,596.016 1524.5,595.5C 1535.37,595.701 1546.04,595.035 1556.5,593.5C 1686.45,585.392 1816.45,577.725 1946.5,570.5C 1950.44,570.207 1954.27,570.54 1958,571.5C 1960.61,570.877 1963.11,570.21 1965.5,569.5C 1994.47,567.418 2023.47,565.751 2052.5,564.5C 2072.39,564.258 2092.06,562.925 2111.5,560.5C 2147.18,558.66 2182.84,556.66 2218.5,554.5C 2246.06,553.973 2273.39,552.306 2300.5,549.5C 2301.83,549.5 2303.17,549.5 2304.5,549.5C 2315.05,549.792 2325.38,549.125 2335.5,547.5C 2347.86,547.29 2360.2,546.623 2372.5,545.5C 2382.39,545.905 2392.06,545.239 2401.5,543.5C 2403.17,543.5 2404.83,543.5 2406.5,543.5C 2450.72,541.958 2494.72,539.291 2538.5,535.5C 2551.53,535.373 2564.53,534.706 2577.5,533.5C 2587.42,533.222 2597.26,533.222 2607,533.5C 2612.91,532.333 2618.74,531.333 2624.5,530.5C 2649.84,529.519 2675.17,528.186 2700.5,526.5C 2729.62,525.99 2747.45,539.99 2754,568.5C 2755.54,574.746 2756.54,581.079 2757,587.5C 2757.67,988.833 2757.67,1390.17 2757,1791.5C 2754.97,1841.86 2728.8,1867.7 2678.5,1869C 2595.83,1873.8 2513.16,1878.63 2430.5,1883.5 Z" fill="#fefefe" style="opacity: 1; --darkreader-inline-fill: var(--darkreader-background-fefefe, #191b1c);" data-darkreader-inline-fill=""/></g>
<g><path d="M 2624.5,530.5 C 2618.74,531.333 2612.91,532.333 2607,533.5C 2597.26,533.222 2587.42,533.222 2577.5,533.5C 2592.98,532 2608.65,531 2624.5,530.5 Z" fill="#9d9d9d" style="opacity: 1; --darkreader-inline-fill: var(--darkreader-text-9d9d9d, #aaa398);" data-darkreader-inline-fill=""/></g>
<g><path d="M 2538.5,535.5 C 2494.72,539.291 2450.72,541.958 2406.5,543.5C 2450.32,540.412 2494.32,537.746 2538.5,535.5 Z" fill="#a4a4a4" style="opacity: 1; --darkreader-inline-fill: var(--darkreader-text-a4a4a4, #afa89d);" data-darkreader-inline-fill=""/></g>
<g><path d="M 2401.5,543.5 C 2392.06,545.239 2382.39,545.905 2372.5,545.5C 2381.98,544.372 2391.65,543.705 2401.5,543.5 Z" fill="#989898" style="opacity: 1; --darkreader-inline-fill: var(--darkreader-text-989898, #a79f94);" data-darkreader-inline-fill=""/></g>
<g><path d="M 2335.5,547.5 C 2325.38,549.125 2315.05,549.792 2304.5,549.5C 2314.64,548.22 2324.98,547.553 2335.5,547.5 Z" fill="#979797" style="opacity: 1; --darkreader-inline-fill: var(--darkreader-text-979797, #a69f93);" data-darkreader-inline-fill=""/></g>
<g><path d="M 2300.5,549.5 C 2273.39,552.306 2246.06,553.973 2218.5,554.5C 2245.65,552.345 2272.98,550.678 2300.5,549.5 Z" fill="#a2a2a2" style="opacity: 1; --darkreader-inline-fill: var(--darkreader-text-a2a2a2, #ada69c);" data-darkreader-inline-fill=""/></g>
<g><path d="M 2111.5,560.5 C 2092.06,562.925 2072.39,564.258 2052.5,564.5C 2071.99,562.791 2091.66,561.458 2111.5,560.5 Z" fill="#a6a6a6" style="opacity: 1; --darkreader-inline-fill: var(--darkreader-text-a6a6a6, #b0a99f);" data-darkreader-inline-fill=""/></g>
<g><path d="M 1946.5,570.5 C 1952.64,569.51 1958.98,569.177 1965.5,569.5C 1963.11,570.21 1960.61,570.877 1958,571.5C 1954.27,570.54 1950.44,570.207 1946.5,570.5 Z" fill="#ababab" style="opacity: 1; --darkreader-inline-fill: var(--darkreader-text-ababab, #b3aca2);" data-darkreader-inline-fill=""/></g>
<g><path d="M 1556.5,593.5 C 1546.04,595.035 1535.37,595.701 1524.5,595.5C 1534.97,594.179 1545.64,593.512 1556.5,593.5 Z" fill="#c4c4c4" style="opacity: 1; --darkreader-inline-fill: var(--darkreader-text-c4c4c4, #c3beb6);" data-darkreader-inline-fill=""/></g>
<g><path d="M 1483.5,597.5 C 1474.73,599.211 1465.73,599.877 1456.5,599.5C 1465.32,598.385 1474.32,597.718 1483.5,597.5 Z" fill="#c3c3c3" style="opacity: 1; --darkreader-inline-fill: var(--darkreader-text-c3c3c3, #c2bdb5);" data-darkreader-inline-fill=""/></g>
<g><path d="M 1427.5,600.5 C 1420.04,601.872 1412.37,602.539 1404.5,602.5C 1411.96,601.128 1419.63,600.461 1427.5,600.5 Z" fill="#939393" style="opacity: 1; --darkreader-inline-fill: var(--darkreader-text-939393, #a49c90);" data-darkreader-inline-fill=""/></g>
<g><path d="M 2537.5,815.5 C 2532.73,816.856 2528.06,818.189 2523.5,819.5C 2504.39,822.523 2485.39,826.189 2466.5,830.5C 2465.67,1120.17 2465.17,1409.83 2465,1699.5C 2452.87,1705.6 2440.71,1711.76 2428.5,1718C 2413.43,1723.41 2398.43,1728.91 2383.5,1734.5C 2377.25,1735.23 2371.25,1736.56 2365.5,1738.5C 2361.44,1738.85 2357.44,1739.51 2353.5,1740.5C 2340.55,1742.03 2327.55,1742.7 2314.5,1742.5C 2313.5,1742.5 2312.5,1742.5 2311.5,1742.5C 2303.55,1741.62 2295.55,1740.29 2287.5,1738.5C 2274.42,1735.79 2262.75,1730.13 2252.5,1721.5C 2231.67,1701.51 2212.84,1679.84 2196,1656.5C 2069.95,1457.03 1943.45,1258.03 1816.5,1059.5C 1816.22,1058.71 1815.72,1058.04 1815,1057.5C 1814.5,1253.17 1814.33,1448.83 1814.5,1644.5C 1815.5,1644.5 1816.5,1644.5 1817.5,1644.5C 1856.92,1653.93 1896.59,1662.93 1936.5,1671.5C 1936.5,1672.83 1936.5,1674.17 1936.5,1675.5C 1935.37,1679.68 1934.37,1684.02 1933.5,1688.5C 1926.18,1710.32 1911.84,1725.49 1890.5,1734C 1882.27,1736.64 1873.94,1738.81 1865.5,1740.5C 1860.32,1740.85 1855.32,1741.51 1850.5,1742.5C 1831.64,1742.65 1812.97,1743.65 1794.5,1745.5C 1784.3,1745.35 1774.3,1746.02 1764.5,1747.5C 1749.51,1748.46 1734.51,1749.12 1719.5,1749.5C 1711.31,1749.62 1703.31,1750.28 1695.5,1751.5C 1653.63,1753.19 1611.8,1755.53 1570,1758.5C 1568.24,1758.46 1566.57,1758.12 1565,1757.5C 1559.42,1731.87 1567.25,1711.7 1588.5,1697C 1612.69,1690.46 1636.69,1683.62 1660.5,1676.5C 1661.83,1676.5 1663.17,1676.5 1664.5,1676.5C 1664.5,1416.83 1664.5,1157.17 1664.5,897.5C 1659.82,897.331 1655.15,896.998 1650.5,896.5C 1648.17,896.5 1645.83,896.5 1643.5,896.5C 1638.01,895.565 1632.34,894.898 1626.5,894.5C 1623.83,894.5 1621.17,894.5 1618.5,894.5C 1612.69,893.423 1606.69,892.757 1600.5,892.5C 1598.5,892.5 1596.5,892.5 1594.5,892.5C 1588.68,891.511 1582.68,890.844 1576.5,890.5C 1572.83,890.5 1569.17,890.5 1565.5,890.5C 1559.79,853.432 1572.79,825.265 1604.5,806C 1610.5,804 1616.5,802 1622.5,800C 1721.31,792.897 1820.15,786.064 1919,779.5C 1921.17,779.833 1923.33,780.167 1925.5,780.5C 2058.88,984.636 2192.22,1188.64 2325.5,1392.5C 2325.82,1394.05 2326.82,1394.71 2328.5,1394.5C 2328.83,1213.33 2328.5,1032.33 2327.5,851.5C 2315.75,848.989 2303.75,847.322 2291.5,846.5C 2290.74,845.732 2289.74,845.232 2288.5,845C 2285.18,844.502 2281.85,844.335 2278.5,844.5C 2277.17,844.5 2275.83,844.5 2274.5,844.5C 2270.12,842.789 2265.45,842.123 2260.5,842.5C 2248.45,841.602 2236.45,840.269 2224.5,838.5C 2220.75,799.969 2237.08,774.636 2273.5,762.5C 2276.15,762.59 2278.49,761.924 2280.5,760.5C 2319.81,758.089 2359.15,755.756 2398.5,753.5C 2407.37,753.581 2416.04,752.915 2424.5,751.5C 2469.83,749.097 2515.16,746.763 2560.5,744.5C 2564.9,760.976 2564.4,777.309 2559,793.5C 2555.01,803.99 2547.84,811.324 2537.5,815.5 Z" fill="#000000" style="opacity: 1; --darkreader-inline-fill: var(--darkreader-background-000000, #000000);" data-darkreader-inline-fill=""/></g>
<g><path d="M 2424.5,751.5 C 2416.04,752.915 2407.37,753.581 2398.5,753.5C 2406.96,752.085 2415.63,751.419 2424.5,751.5 Z" fill="#7b7b7b" style="opacity: 1; --darkreader-inline-fill: var(--darkreader-text-7b7b7b, #9a9284);" data-darkreader-inline-fill=""/></g>
<g><path d="M 2280.5,760.5 C 2278.49,761.924 2276.15,762.59 2273.5,762.5C 2275.51,761.076 2277.85,760.41 2280.5,760.5 Z" fill="#6d6d6d" style="opacity: 0.988; --darkreader-inline-fill: var(--darkreader-text-6d6d6d, #a39b8f);" data-darkreader-inline-fill=""/></g>
<g><path d="M 2537.5,815.5 C 2536.65,816.966 2535.32,817.8 2533.5,818C 2530.24,819.043 2526.91,819.543 2523.5,819.5C 2528.06,818.189 2532.73,816.856 2537.5,815.5 Z" fill="#b5b5b5" style="opacity: 1; --darkreader-inline-fill: var(--darkreader-text-b5b5b5, #b9b3aa);" data-darkreader-inline-fill=""/></g>
<g><path d="M 2260.5,842.5 C 2265.45,842.123 2270.12,842.789 2274.5,844.5C 2269.65,844.187 2264.98,843.521 2260.5,842.5 Z" fill="#3c3c3c" style="opacity: 0.992; --darkreader-inline-fill: var(--darkreader-text-3c3c3c, #c2bdb5);" data-darkreader-inline-fill=""/></g>
<g><path d="M 2278.5,844.5 C 2281.85,844.335 2285.18,844.502 2288.5,845C 2289.74,845.232 2290.74,845.732 2291.5,846.5C 2286.97,846.23 2282.64,845.563 2278.5,844.5 Z" fill="#3a3a3a" style="opacity: 0.992; --darkreader-inline-fill: var(--darkreader-text-3a3a3a, #c3beb6);" data-darkreader-inline-fill=""/></g>
<g><path d="M 2327.5,851.5 C 2328.5,1032.33 2328.83,1213.33 2328.5,1394.5C 2326.82,1394.71 2325.82,1394.05 2325.5,1392.5C 2326.12,1392.61 2326.62,1392.94 2327,1393.5C 2327.5,1212.83 2327.67,1032.17 2327.5,851.5 Z" fill="#1f1f1f" style="opacity: 0.992; --darkreader-inline-fill: var(--darkreader-background-1f1f1f, #17191a);" data-darkreader-inline-fill=""/></g>
<g><path d="M 1576.5,890.5 C 1582.68,890.844 1588.68,891.511 1594.5,892.5C 1589.82,892.666 1585.15,892.499 1580.5,892C 1578.94,891.79 1577.61,891.29 1576.5,890.5 Z" fill="#b1b1b1" style="opacity: 1; --darkreader-inline-fill: var(--darkreader-text-b1b1b1, #b7b0a7);" data-darkreader-inline-fill=""/></g>
<g><path d="M 1600.5,892.5 C 1606.69,892.757 1612.69,893.423 1618.5,894.5C 1612.24,894.895 1606.24,894.228 1600.5,892.5 Z" fill="#b2b2b2" style="opacity: 1; --darkreader-inline-fill: var(--darkreader-text-b2b2b2, #b7b1a8);" data-darkreader-inline-fill=""/></g>
<g><path d="M 1626.5,894.5 C 1632.34,894.898 1638.01,895.565 1643.5,896.5C 1639.15,896.666 1634.82,896.499 1630.5,896C 1628.94,895.79 1627.61,895.29 1626.5,894.5 Z" fill="#b0b0b0" style="opacity: 1; --darkreader-inline-fill: var(--darkreader-text-b0b0b0, #b6b0a6);" data-darkreader-inline-fill=""/></g>
<g><path d="M 1650.5,896.5 C 1655.15,896.998 1659.82,897.331 1664.5,897.5C 1664.5,1157.17 1664.5,1416.83 1664.5,1676.5C 1663.17,1676.5 1661.83,1676.5 1660.5,1676.5C 1661.21,1675.6 1662.21,1675.26 1663.5,1675.5C 1663.5,1416.5 1663.5,1157.5 1663.5,898.5C 1658.88,898.844 1654.54,898.177 1650.5,896.5 Z" fill="#dddddd" style="opacity: 1; --darkreader-inline-fill: var(--darkreader-background-dddddd, #2b2f31);" data-darkreader-inline-fill=""/></g>
<g><path d="M 1816.5,1059.5 C 1815.83,1156.67 1815.5,1254 1815.5,1351.5C 1815.5,1449.37 1816.17,1547.04 1817.5,1644.5C 1816.5,1644.5 1815.5,1644.5 1814.5,1644.5C 1814.33,1448.83 1814.5,1253.17 1815,1057.5C 1815.72,1058.04 1816.22,1058.71 1816.5,1059.5 Z" fill="#dddddd" style="opacity: 1; --darkreader-inline-fill: var(--darkreader-background-dddddd, #2b2f31);" data-darkreader-inline-fill=""/></g>
<g><path d="M 945.5,1531.5 C 946.222,1531.92 946.722,1532.58 947,1533.5C 947.498,1536.48 947.665,1539.48 947.5,1542.5C 946.883,1542.39 946.383,1542.06 946,1541.5C 945.502,1538.18 945.335,1534.85 945.5,1531.5 Z" fill="#575757" style="opacity: 0.337; --darkreader-inline-fill: var(--darkreader-text-575757, #b1aaa0);" data-darkreader-inline-fill=""/></g>
<g><path d="M 973.5,1626.5 C 975.588,1628.34 976.921,1630.67 977.5,1633.5C 975.412,1631.66 974.079,1629.33 973.5,1626.5 Z" fill="#5a5a5a" style="opacity: 0.518; --darkreader-inline-fill: var(--darkreader-text-5a5a5a, #afa89e);" data-darkreader-inline-fill=""/></g>
<g><path d="M 1936.5,1675.5 C 1937.04,1680.31 1936.04,1684.65 1933.5,1688.5C 1934.37,1684.02 1935.37,1679.68 1936.5,1675.5 Z" fill="#a1a1a1" style="opacity: 1; --darkreader-inline-fill: var(--darkreader-text-a1a1a1, #ada59b);" data-darkreader-inline-fill=""/></g>
<g><path d="M 2383.5,1734.5 C 2382.48,1735.95 2381.31,1736.29 2380,1735.5C 2375.37,1737.37 2370.53,1738.37 2365.5,1738.5C 2371.25,1736.56 2377.25,1735.23 2383.5,1734.5 Z" fill="#a8a8a8" style="opacity: 1; --darkreader-inline-fill: var(--darkreader-text-a8a8a8, #b1aaa0);" data-darkreader-inline-fill=""/></g>
<g><path d="M 2287.5,1738.5 C 2295.55,1740.29 2303.55,1741.62 2311.5,1742.5C 2305.44,1742.66 2299.44,1742.16 2293.5,1741C 2291.03,1740.96 2289.03,1740.13 2287.5,1738.5 Z" fill="#ababab" style="opacity: 1; --darkreader-inline-fill: var(--darkreader-text-ababab, #b3aca2);" data-darkreader-inline-fill=""/></g>
<g><path d="M 1865.5,1740.5 C 1864.74,1741.27 1863.74,1741.77 1862.5,1742C 1858.51,1742.5 1854.51,1742.67 1850.5,1742.5C 1855.32,1741.51 1860.32,1740.85 1865.5,1740.5 Z" fill="#9d9d9d" style="opacity: 1; --darkreader-inline-fill: var(--darkreader-text-9d9d9d, #aaa398);" data-darkreader-inline-fill=""/></g>
<g><path d="M 2353.5,1740.5 C 2347.15,1742.06 2340.65,1743.4 2334,1744.5C 2327.4,1743.85 2320.9,1743.18 2314.5,1742.5C 2327.55,1742.7 2340.55,1742.03 2353.5,1740.5 Z" fill="#aeaeae" style="opacity: 1; --darkreader-inline-fill: var(--darkreader-text-aeaeae, #b5aea5);" data-darkreader-inline-fill=""/></g>
<g><path d="M 1850.5,1742.5 C 1841.72,1743.1 1832.89,1744.1 1824,1745.5C 1815.59,1745.21 1807.09,1745.21 1798.5,1745.5C 1797.17,1745.5 1795.83,1745.5 1794.5,1745.5C 1812.97,1743.65 1831.64,1742.65 1850.5,1742.5 Z" fill="#a3a3a3" style="opacity: 1; --darkreader-inline-fill: var(--darkreader-text-a3a3a3, #aea79c);" data-darkreader-inline-fill=""/></g>
<g><path d="M 1794.5,1745.5 C 1795.83,1745.5 1797.17,1745.5 1798.5,1745.5C 1787.36,1746.9 1776.03,1747.56 1764.5,1747.5C 1774.3,1746.02 1784.3,1745.35 1794.5,1745.5 Z" fill="#bababa" style="opacity: 1; --darkreader-inline-fill: var(--darkreader-text-bababa, #bcb7ae);" data-darkreader-inline-fill=""/></g>
<g><path d="M 1719.5,1749.5 C 1711.72,1751.09 1703.72,1751.75 1695.5,1751.5C 1703.31,1750.28 1711.31,1749.62 1719.5,1749.5 Z" fill="#9f9f9f" style="opacity: 1; --darkreader-inline-fill: var(--darkreader-text-9f9f9f, #aba499);" data-darkreader-inline-fill=""/></g>
<g><path d="M 1111.5,1815.5 C 1113.59,1816.58 1114.92,1818.25 1115.5,1820.5C 1113.41,1819.42 1112.08,1817.75 1111.5,1815.5 Z" fill="#5f5f5f" style="opacity: 0.337; --darkreader-inline-fill: var(--darkreader-text-5f5f5f, #aca59a);" data-darkreader-inline-fill=""/></g>
<g><path d="M 2430.5,1883.5 C 2420.7,1884.97 2410.7,1885.97 2400.5,1886.5C 2398.95,1886.49 2397.62,1886.16 2396.5,1885.5C 2407.82,1884.64 2419.15,1883.97 2430.5,1883.5 Z" fill="#373737" style="opacity: 0.992; --darkreader-inline-fill: var(--darkreader-text-373737, #c5c0b9);" data-darkreader-inline-fill=""/></g>
<g><path d="M 2395.5,1885.5 C 2390.74,1886.37 2385.91,1887.37 2381,1888.5C 2374.4,1888.09 2367.9,1887.76 2361.5,1887.5C 2372.82,1886.72 2384.16,1886.05 2395.5,1885.5 Z" fill="#363636" style="opacity: 0.992; --darkreader-inline-fill: var(--darkreader-text-363636, #c6c1b9);" data-darkreader-inline-fill=""/></g>
<g><path d="M 1350.5,1881.5 C 1351.77,1883.91 1352.43,1886.57 1352.5,1889.5C 1350.78,1887.22 1350.11,1884.55 1350.5,1881.5 Z" fill="#525252" style="opacity: 0.988; --darkreader-inline-fill: var(--darkreader-text-525252, #b4aea4);" data-darkreader-inline-fill=""/></g>
<g><path d="M 2344.5,1888.5 C 2328.86,1890.32 2313.03,1891.65 2297,1892.5C 2295.29,1892.49 2293.79,1892.16 2292.5,1891.5C 2309.82,1890.34 2327.16,1889.34 2344.5,1888.5 Z" fill="#373737" style="opacity: 0.992; --darkreader-inline-fill: var(--darkreader-text-373737, #c5c0b9);" data-darkreader-inline-fill=""/></g>
<g><path d="M 2891.5,1883.5 C 2892.1,1883.74 2892.43,1884.24 2892.5,1885C 2891.93,1888.98 2891.26,1892.82 2890.5,1896.5C 2890.23,1892.07 2890.56,1887.74 2891.5,1883.5 Z" fill="#434343" style="opacity: 0.725; --darkreader-inline-fill: var(--darkreader-text-434343, #beb8b0);" data-darkreader-inline-fill=""/></g>
<g><path d="M 2263.5,1893.5 C 2254.36,1894.82 2245.03,1895.49 2235.5,1895.5C 2244.63,1894.01 2253.96,1893.34 2263.5,1893.5 Z" fill="#343434" style="opacity: 0.992; --darkreader-inline-fill: var(--darkreader-text-343434, #c7c2bb);" data-darkreader-inline-fill=""/></g>
<g><path d="M 2194.5,1897.5 C 2185.36,1898.82 2176.03,1899.49 2166.5,1899.5C 2175.63,1898.01 2184.96,1897.34 2194.5,1897.5 Z" fill="#343434" style="opacity: 0.992; --darkreader-inline-fill: var(--darkreader-text-343434, #c7c2bb);" data-darkreader-inline-fill=""/></g>
<g><path d="M 1838.5,1917.5 C 1825.67,1918.82 1812.67,1919.82 1799.5,1920.5C 1799.5,1920.17 1799.5,1919.83 1799.5,1919.5C 1812.47,1918.38 1825.47,1917.71 1838.5,1917.5 Z" fill="#adadad" style="opacity: 1; --darkreader-inline-fill: var(--darkreader-text-adadad, #b4aea4);" data-darkreader-inline-fill=""/></g>
<g><path d="M 1799.5,1919.5 C 1799.5,1919.83 1799.5,1920.17 1799.5,1920.5C 1789.84,1921.03 1780.17,1921.36 1770.5,1921.5C 1779.98,1920.3 1789.65,1919.64 1799.5,1919.5 Z" fill="#cacaca" style="opacity: 1; --darkreader-inline-fill: var(--darkreader-text-cacaca, #c7c2ba);" data-darkreader-inline-fill=""/></g>
<g><path d="M 1769.5,1921.5 C 1758.36,1922.9 1747.03,1923.56 1735.5,1923.5C 1746.64,1922.18 1757.98,1921.51 1769.5,1921.5 Z" fill="#c2c2c2" style="opacity: 1; --darkreader-inline-fill: var(--darkreader-text-c2c2c2, #c1bcb4);" data-darkreader-inline-fill=""/></g>
<g><path d="M 1735.5,1923.5 C 1724.36,1924.9 1713.03,1925.56 1701.5,1925.5C 1712.64,1924.18 1723.98,1923.51 1735.5,1923.5 Z" fill="#bfbfbf" style="opacity: 1; --darkreader-inline-fill: var(--darkreader-text-bfbfbf, #c0bab2);" data-darkreader-inline-fill=""/></g>
<g><path d="M 2886.5,1923.5 C 2886.59,1926.15 2885.92,1928.49 2884.5,1930.5C 2884.41,1927.85 2885.08,1925.51 2886.5,1923.5 Z" fill="#5c5c5c" style="opacity: 0.337; --darkreader-inline-fill: var(--darkreader-text-5c5c5c, #aea79c);" data-darkreader-inline-fill=""/></g>
<g><path d="M 1666.5,1927.5 C 1659.33,1928.41 1652,1929.08 1644.5,1929.5C 1645.61,1928.71 1646.94,1928.21 1648.5,1928C 1654.49,1927.5 1660.49,1927.33 1666.5,1927.5 Z" fill="#b4b4b4" style="opacity: 1; --darkreader-inline-fill: var(--darkreader-text-b4b4b4, #b9b3a9);" data-darkreader-inline-fill=""/></g>
<g><path d="M 1615.5,1930.5 C 1605.69,1931.74 1595.69,1932.41 1585.5,1932.5C 1595.3,1931.02 1605.3,1930.35 1615.5,1930.5 Z" fill="#b0b0b0" style="opacity: 1; --darkreader-inline-fill: var(--darkreader-text-b0b0b0, #b6b0a6);" data-darkreader-inline-fill=""/></g>
<g><path d="M 1581.5,1932.5 C 1574,1933.4 1566.33,1934.06 1558.5,1934.5C 1559.61,1933.71 1560.94,1933.21 1562.5,1933C 1568.82,1932.5 1575.16,1932.33 1581.5,1932.5 Z" fill="#ababab" style="opacity: 1; --darkreader-inline-fill: var(--darkreader-text-ababab, #b3aca2);" data-darkreader-inline-fill=""/></g>
<g><path d="M 1405.5,1937.5 C 1408.15,1937.41 1410.49,1938.08 1412.5,1939.5C 1409.85,1939.59 1407.51,1938.92 1405.5,1937.5 Z" fill="#878787" style="opacity: 1; --darkreader-inline-fill: var(--darkreader-text-878787, #9c9487);" data-darkreader-inline-fill=""/></g>
<g><path d="M 2861.5,1972.5 C 2860.17,1975.83 2857.83,1978.17 2854.5,1979.5C 2856.5,1976.83 2858.83,1974.5 2861.5,1972.5 Z" fill="#5a5a5a" style="opacity: 0.337; --darkreader-inline-fill: var(--darkreader-text-5a5a5a, #afa89e);" data-darkreader-inline-fill=""/></g>
<g><path d="M 1248.5,1993.5 C 1250.53,1994.54 1251.86,1996.21 1252.5,1998.5C 1250.46,1997.42 1249.12,1995.75 1248.5,1993.5 Z" fill="#525252" style="opacity: 0.337; --darkreader-inline-fill: var(--darkreader-text-525252, #b4aea4);" data-darkreader-inline-fill=""/></g>
<g><path d="M 2833.5,1994.5 C 2831.42,1996.87 2828.75,1998.21 2825.5,1998.5C 2827.85,1996.66 2830.52,1995.33 2833.5,1994.5 Z" fill="#5b5b5b" style="opacity: 0.337; --darkreader-inline-fill: var(--darkreader-text-5b5b5b, #afa89d);" data-darkreader-inline-fill=""/></g>
<g><path d="M 2823.5,1999.5 C 2810.61,2005.81 2796.94,2009.81 2782.5,2011.5C 2796.3,2008.3 2809.96,2004.3 2823.5,1999.5 Z" fill="#5c5c5c" style="opacity: 0.337; --darkreader-inline-fill: var(--darkreader-text-5c5c5c, #aea79c);" data-darkreader-inline-fill=""/></g>
<g><path d="M 2776.5,2012.5 C 2774.44,2013.22 2772.28,2013.88 2770,2014.5C 2769.6,2014.27 2769.43,2013.94 2769.5,2013.5C 2771.61,2012.53 2773.94,2012.2 2776.5,2012.5 Z" fill="#5f5f5f" style="opacity: 0.337; --darkreader-inline-fill: var(--darkreader-text-5f5f5f, #aca59a);" data-darkreader-inline-fill=""/></g>
<g><path d="M 2768.5,2013.5 C 2766.78,2014.22 2764.95,2014.89 2763,2015.5C 2762.05,2015.12 2761.22,2014.78 2760.5,2014.5C 2762.95,2013.53 2765.61,2013.19 2768.5,2013.5 Z" fill="#575757" style="opacity: 0.988; --darkreader-inline-fill: var(--darkreader-text-575757, #b1aaa0);" data-darkreader-inline-fill=""/></g>
<g><path d="M 2746.5,2015.5 C 2750.63,2014.52 2754.97,2014.18 2759.5,2014.5C 2756.44,2015.2 2753.27,2015.87 2750,2016.5C 2748.86,2016.38 2747.69,2016.05 2746.5,2015.5 Z" fill="#474747" style="opacity: 0.725; --darkreader-inline-fill: var(--darkreader-text-474747, #bbb5ac);" data-darkreader-inline-fill=""/></g>
<g><path d="M 2729.5,2016.5 C 2734.31,2015.51 2739.31,2015.18 2744.5,2015.5C 2738.95,2017.04 2733.95,2017.37 2729.5,2016.5 Z" fill="#484848" style="opacity: 0.988; --darkreader-inline-fill: var(--darkreader-text-484848, #bbb5ac);" data-darkreader-inline-fill=""/></g>
<g><path d="M 2713.5,2017.5 C 2717.97,2016.51 2722.64,2016.18 2727.5,2016.5C 2725.11,2017.21 2722.61,2017.88 2720,2018.5C 2717.73,2018.33 2715.56,2018 2713.5,2017.5 Z" fill="#484848" style="opacity: 0.988; --darkreader-inline-fill: var(--darkreader-text-484848, #bbb5ac);" data-darkreader-inline-fill=""/></g>
<g><path d="M 2696.5,2018.5 C 2701.31,2017.51 2706.31,2017.18 2711.5,2017.5C 2705.95,2019.04 2700.95,2019.37 2696.5,2018.5 Z" fill="#484848" style="opacity: 0.988; --darkreader-inline-fill: var(--darkreader-text-484848, #bbb5ac);" data-darkreader-inline-fill=""/></g>
<g><path d="M 2694.5,2018.5 C 2691.44,2019.2 2688.27,2019.87 2685,2020.5C 2683.67,2019.92 2682.5,2019.59 2681.5,2019.5C 2685.63,2018.52 2689.97,2018.18 2694.5,2018.5 Z" fill="#434343" style="opacity: 0.725; --darkreader-inline-fill: var(--darkreader-text-434343, #beb8b0);" data-darkreader-inline-fill=""/></g>
<g><path d="M 2664.5,2020.5 C 2668.97,2019.51 2673.64,2019.18 2678.5,2019.5C 2675.44,2020.2 2672.27,2020.87 2669,2021.5C 2667.44,2021.09 2665.94,2020.75 2664.5,2020.5 Z" fill="#484848" style="opacity: 0.988; --darkreader-inline-fill: var(--darkreader-text-484848, #bbb5ac);" data-darkreader-inline-fill=""/></g>
<g><path d="M 2662.5,2020.5 C 2658.1,2021.19 2653.6,2021.86 2649,2022.5C 2648.6,2022.27 2648.43,2021.94 2648.5,2021.5C 2652.97,2020.51 2657.64,2020.18 2662.5,2020.5 Z" fill="#444444" style="opacity: 0.725; --darkreader-inline-fill: var(--darkreader-text-444444, #bdb7af);" data-darkreader-inline-fill=""/></g>
<g><path d="M 2645.5,2021.5 C 2642.1,2022.2 2638.6,2022.86 2635,2023.5C 2633.67,2022.92 2632.5,2022.59 2631.5,2022.5C 2635.97,2021.51 2640.64,2021.18 2645.5,2021.5 Z" fill="#484848" style="opacity: 0.988; --darkreader-inline-fill: var(--darkreader-text-484848, #bbb5ac);" data-darkreader-inline-fill=""/></g>
<g><path d="M 2628.5,2022.5 C 2627.47,2023.25 2626.3,2023.92 2625,2024.5C 2621.63,2023.63 2618.46,2023.29 2615.5,2023.5C 2619.63,2022.52 2623.97,2022.18 2628.5,2022.5 Z" fill="#434343" style="opacity: 0.725; --darkreader-inline-fill: var(--darkreader-text-434343, #beb8b0);" data-darkreader-inline-fill=""/></g>
<g><path d="M 2612.5,2023.5 C 2608.77,2024.2 2604.94,2024.86 2601,2025.5C 2600.05,2025.12 2599.22,2024.78 2598.5,2024.5C 2602.97,2023.51 2607.64,2023.18 2612.5,2023.5 Z" fill="#454545" style="opacity: 0.725; --darkreader-inline-fill: var(--darkreader-text-454545, #bcb7ae);" data-darkreader-inline-fill=""/></g>
<g><path d="M 2582.5,2025.5 C 2586.97,2024.51 2591.64,2024.18 2596.5,2024.5C 2591.66,2026.04 2586.99,2026.37 2582.5,2025.5 Z" fill="#464646" style="opacity: 0.725; --darkreader-inline-fill: var(--darkreader-text-464646, #bcb6ad);" data-darkreader-inline-fill=""/></g>
<g><path d="M 2565.5,2026.5 C 2569.97,2025.51 2574.64,2025.18 2579.5,2025.5C 2575.43,2026.19 2571.27,2026.86 2567,2027.5C 2566.62,2026.94 2566.12,2026.61 2565.5,2026.5 Z" fill="#434343" style="opacity: 0.725; --darkreader-inline-fill: var(--darkreader-text-434343, #beb8b0);" data-darkreader-inline-fill=""/></g>
<g><path d="M 2283.5,2043.5 C 2191.68,2049.66 2099.68,2055.32 2007.5,2060.5C 2014.94,2058.97 2022.61,2058.13 2030.5,2058C 2114.82,2052.76 2199.15,2047.92 2283.5,2043.5 Z" fill="#363636" style="opacity: 0.992; --darkreader-inline-fill: var(--darkreader-background-363636, #292c2e);" data-darkreader-inline-fill=""/></g>
<g><path d="M 2006.5,2060.5 C 1995.88,2061.53 1985.22,2062.2 1974.5,2062.5C 1983.46,2060.94 1992.62,2059.94 2002,2059.5C 2003.71,2059.51 2005.21,2059.84 2006.5,2060.5 Z" fill="#393939" style="opacity: 0.992; --darkreader-inline-fill: var(--darkreader-text-393939, #c4bfb7);" data-darkreader-inline-fill=""/></g>
<g><path d="M 1958.5,2063.5 C 1946.87,2064.62 1935.2,2065.29 1923.5,2065.5C 1933.29,2063.96 1943.29,2062.96 1953.5,2062.5C 1955.37,2062.51 1957.04,2062.84 1958.5,2063.5 Z" fill="#373737" style="opacity: 0.992; --darkreader-inline-fill: var(--darkreader-text-373737, #c5c0b9);" data-darkreader-inline-fill=""/></g>
<g><path d="M 1908.5,2066.5 C 1903.23,2067.4 1897.89,2067.73 1892.5,2067.5C 1897.01,2066.73 1901.68,2066.06 1906.5,2065.5C 1907.42,2065.54 1908.08,2065.88 1908.5,2066.5 Z" fill="#565656" style="opacity: 0.337; --darkreader-inline-fill: var(--darkreader-text-565656, #b2aba1);" data-darkreader-inline-fill=""/></g>
<g><path d="M 1887.5,2067.5 C 1877.77,2068.56 1867.94,2069.56 1858,2070.5C 1857.62,2069.94 1857.12,2069.61 1856.5,2069.5C 1866.64,2068.14 1876.97,2067.47 1887.5,2067.5 Z" fill="#525252" style="opacity: 0.337; --darkreader-inline-fill: var(--darkreader-text-525252, #b4aea4);" data-darkreader-inline-fill=""/></g>
<g><path d="M 1855.5,2069.5 C 1850.43,2070.19 1845.27,2070.85 1840,2071.5C 1839.6,2071.27 1839.43,2070.94 1839.5,2070.5C 1844.57,2069.81 1849.73,2069.15 1855,2068.5C 1855.4,2068.73 1855.57,2069.06 1855.5,2069.5 Z" fill="#484848" style="opacity: 0.725; --darkreader-inline-fill: var(--darkreader-text-484848, #bbb5ac);" data-darkreader-inline-fill=""/></g>
<g><path d="M 1838.5,2070.5 C 1834.1,2071.19 1829.6,2071.86 1825,2072.5C 1824.33,2071.75 1823.5,2071.41 1822.5,2071.5C 1827.57,2070.81 1832.73,2070.15 1838,2069.5C 1838.4,2069.73 1838.57,2070.06 1838.5,2070.5 Z" fill="#484848" style="opacity: 0.725; --darkreader-inline-fill: var(--darkreader-text-484848, #bbb5ac);" data-darkreader-inline-fill=""/></g>
<g><path d="M 1822.5,2071.5 C 1806.77,2072.85 1790.93,2074.18 1775,2075.5C 1774.62,2074.94 1774.12,2074.61 1773.5,2074.5C 1789.64,2072.77 1805.97,2071.77 1822.5,2071.5 Z" fill="#494949" style="opacity: 0.725; --darkreader-inline-fill: var(--darkreader-text-494949, #bab4ab);" data-darkreader-inline-fill=""/></g>
<g><path d="M 1773.5,2074.5 C 1663.17,2081.94 1553.17,2088.6 1443.5,2094.5C 1458.62,2093.12 1474.12,2091.78 1490,2090.5C 1490.33,2090.83 1490.67,2091.17 1491,2091.5C 1585.28,2085.09 1679.45,2079.42 1773.5,2074.5 Z" fill="#525252" style="opacity: 0.337; --darkreader-inline-fill: var(--darkreader-background-525252, #3e4345);" data-darkreader-inline-fill=""/></g>
<g><path d="M 1353.5,2087.5 C 1367.49,2090.72 1381.49,2093.05 1395.5,2094.5C 1381.29,2094.58 1367.29,2092.24 1353.5,2087.5 Z" fill="#4e4e4e" style="opacity: 0.988; --darkreader-inline-fill: var(--darkreader-text-4e4e4e, #b7b0a7);" data-darkreader-inline-fill=""/></g>
<g><path d="M 1442.5,2094.5 C 1427.17,2095.83 1411.83,2095.83 1396.5,2094.5C 1412.14,2094.47 1427.47,2094.47 1442.5,2094.5 Z" fill="#5f5f5f" style="opacity: 0.518; --darkreader-inline-fill: var(--darkreader-text-5f5f5f, #aca59a);" data-darkreader-inline-fill=""/></g>
</svg>